<svg width="100%" height="100%" viewBox="0 0 48 40" fill="none" xmlns="http://www.w3.org/2000/svg">
<path d="M38.5595 5.0482H4.06373V26.9632H38.5595V5.0482Z" fill="#BDBDBD"/>
<path d="M38.5595 5.0482H21.9202V26.9632H38.5595V5.0482Z" fill="#B0ACAC"/>
<path d="M36.1245 6.67152H6.09292V24.934H36.1245V6.67152Z" fill="#E44160"/>
<path d="M36.1245 6.67152H6.09292L21.9668 16.2275L36.1245 24.934V6.67152Z" fill="#C13852"/>
<path d="M27.6019 26.9632H15.021V31.4273H27.6019V26.9632Z" fill="#9F9F9F"/>
<path d="M28.4138 30.6157H14.2097V31.8332H28.4138V30.6157Z" fill="#BDBDBD"/>
<path d="M28.4138 30.6157H21.9202V31.8332H28.4138V30.6157Z" fill="#B0ACAC"/>
<path d="M44.5246 20.8102H23.5795C23.3079 20.8166 23.0498 20.9287 22.8612 21.1223C22.6725 21.3159 22.5686 21.5754 22.5719 21.8445V34.7219C22.5675 34.9913 22.6711 35.2514 22.86 35.4452C23.0488 35.6391 23.3076 35.7509 23.5795 35.7562H44.5246C44.7965 35.7509 45.0552 35.6391 45.2441 35.4452C45.4329 35.2514 45.5365 34.9913 45.5322 34.7219V21.8445C45.5365 21.5751 45.4329 21.315 45.2441 21.1212C45.0552 20.9273 44.7965 20.8155 44.5246 20.8102Z" fill="#EE323E"/>
<path d="M24.2256 21.6996H43.8786C44.0942 21.6996 44.3008 21.7844 44.4532 21.9353C44.6056 22.0862 44.6912 22.291 44.6912 22.5044V34.3678C44.6919 34.4934 44.6628 34.6175 44.6064 34.73C44.5499 34.8425 44.4677 34.9403 44.3662 35.0157L23.8234 21.8002C23.9464 21.7327 24.085 21.6981 24.2256 21.6996Z" fill="#C3E1DB"/>
<path d="M23.8234 21.8163L44.3662 35.0318C44.2271 35.1396 44.0553 35.1978 43.8786 35.1968H24.2256C24.0101 35.1968 23.8034 35.112 23.651 34.9611C23.4986 34.8101 23.413 34.6054 23.413 34.3919V22.5044C23.415 22.3643 23.4539 22.227 23.5259 22.1063C23.5978 21.9856 23.7004 21.8857 23.8234 21.8163Z" fill="#9AD2D9"/>
<path d="M47.2834 38.4363V38.1063L20.9873 38.3276V38.4564C21.0155 38.6446 21.1155 38.815 21.2666 38.9325C21.4178 39.05 21.6086 39.1057 21.7999 39.0882H46.4708C46.6654 39.1063 46.8594 39.0482 47.0113 38.9264C47.1632 38.8045 47.2609 38.6286 47.2834 38.4363Z" fill="#D71F26"/>
<path d="M44.8699 35.6958H23.4088C23.2055 35.6797 23.0009 35.7037 22.807 35.7666C22.6131 35.8295 22.4337 35.9299 22.2793 36.062L21.0116 38.1063C20.8532 38.3598 21.1864 38.5731 21.7592 38.5731H46.5195C47.0883 38.5731 47.4256 38.3598 47.2671 38.1063L45.9954 36.062C45.8416 35.9302 45.6629 35.8299 45.4697 35.7671C45.2765 35.7042 45.0726 35.68 44.8699 35.6958Z" fill="#EE323E"/>
<path d="M43.9354 36.4805H24.3434C24.0285 36.4475 23.7108 36.5062 23.4292 36.6495L22.9579 37.5188C22.901 37.6194 23.2463 37.7039 23.7298 37.7039H44.5489C45.0284 37.7039 45.3615 37.6194 45.3209 37.5188L44.8455 36.6495C44.5657 36.5054 44.249 36.4466 43.9354 36.4805Z" fill="#FF9FA5"/>
<path d="M43.6266 35.897H24.6359C24.3642 35.8846 24.0919 35.8995 23.8232 35.9413L23.7013 36.1666C23.9593 36.2176 24.2231 36.2339 24.4855 36.2149H43.8094C44.0718 36.2333 44.3355 36.217 44.5936 36.1666L44.4676 35.9413C44.1896 35.8975 43.9077 35.8827 43.6266 35.897Z" fill="#FF9FA5"/>
<path d="M38.9622 37.7964H29.3125C29.089 37.7964 28.9062 37.8286 28.9062 37.8689L28.8127 38.2391C28.8127 38.2834 28.9793 38.3196 29.219 38.3196H39.1126C39.3442 38.3196 39.5189 38.2834 39.5189 38.2391L39.4254 37.8689C39.3767 37.8367 39.1857 37.7964 38.9622 37.7964Z" fill="#FF9FA5"/>
<path d="M44.5246 20.8102H23.5795C23.3079 20.8166 23.0498 20.9287 22.8612 21.1223C22.6725 21.3159 22.5686 21.5754 22.5719 21.8445V34.7219C22.5675 34.9913 22.6711 35.2514 22.86 35.4452C23.0488 35.6391 23.3076 35.7509 23.5795 35.7562H44.5246C44.7965 35.7509 45.0552 35.6391 45.2441 35.4452C45.4329 35.2514 45.5365 34.9913 45.5322 34.7219V21.8445C45.5365 21.5751 45.4329 21.315 45.2441 21.1212C45.0552 20.9273 44.7965 20.8155 44.5246 20.8102Z" fill="#EE323E"/>
<path d="M24.2256 21.6996H43.8786C44.0942 21.6996 44.3008 21.7844 44.4532 21.9353C44.6056 22.0862 44.6912 22.291 44.6912 22.5044V34.3678C44.6919 34.4934 44.6628 34.6175 44.6064 34.73C44.5499 34.8425 44.4677 34.9403 44.3662 35.0157L23.8234 21.8002C23.9464 21.7327 24.085 21.6981 24.2256 21.6996Z" fill="#C3E1DB"/>
<path d="M23.8234 21.8163L44.3662 35.0318C44.2271 35.1396 44.0553 35.1978 43.8786 35.1968H24.2256C24.0101 35.1968 23.8034 35.112 23.651 34.9611C23.4986 34.8101 23.413 34.6054 23.413 34.3919V22.5044C23.415 22.3643 23.4539 22.227 23.5259 22.1063C23.5978 21.9856 23.7004 21.8857 23.8234 21.8163Z" fill="#9AD2D9"/>
<path d="M47.2834 38.4363V38.1063L20.9873 38.3276V38.4564C21.0155 38.6446 21.1155 38.815 21.2666 38.9325C21.4178 39.05 21.6086 39.1057 21.7999 39.0882H46.4708C46.6654 39.1063 46.8594 39.0482 47.0113 38.9264C47.1632 38.8045 47.2609 38.6286 47.2834 38.4363Z" fill="#D71F26"/>
<path d="M44.8699 35.6958H23.4088C23.2055 35.6797 23.0009 35.7037 22.807 35.7666C22.6131 35.8295 22.4337 35.9299 22.2793 36.062L21.0116 38.1063C20.8532 38.3598 21.1864 38.5731 21.7592 38.5731H46.5195C47.0883 38.5731 47.4256 38.3598 47.2671 38.1063L45.9954 36.062C45.8416 35.9302 45.6629 35.8299 45.4697 35.7671C45.2765 35.7042 45.0726 35.68 44.8699 35.6958Z" fill="#EE323E"/>
<path d="M43.9354 36.4805H24.3434C24.0285 36.4475 23.7108 36.5062 23.4292 36.6495L22.9579 37.5188C22.901 37.6194 23.2463 37.7039 23.7298 37.7039H44.5489C45.0284 37.7039 45.3615 37.6194 45.3209 37.5188L44.8455 36.6495C44.5657 36.5054 44.249 36.4466 43.9354 36.4805Z" fill="#FF9FA5"/>
<path d="M43.6266 35.897H24.6359C24.3642 35.8846 24.0919 35.8995 23.8232 35.9413L23.7013 36.1666C23.9593 36.2176 24.2231 36.2339 24.4855 36.2149H43.8094C44.0718 36.2333 44.3355 36.217 44.5936 36.1666L44.4676 35.9413C44.1896 35.8975 43.9077 35.8827 43.6266 35.897Z" fill="#FF9FA5"/>
<path d="M38.9622 37.7964H29.3125C29.089 37.7964 28.9062 37.8286 28.9062 37.8689L28.8127 38.2391C28.8127 38.2834 28.9793 38.3196 29.219 38.3196H39.1126C39.3442 38.3196 39.5189 38.2834 39.5189 38.2391L39.4254 37.8689C39.3767 37.8367 39.1857 37.7964 38.9622 37.7964Z" fill="#FF9FA5"/>
<path d="M3.76111 36.3492C3.76111 36.5917 3.56541 36.7882 3.32383 36.7882H2.40559C2.16401 36.7882 1.96824 36.5917 1.96824 36.3492C1.96824 36.1068 2.16401 35.9101 2.40559 35.9101H3.32383C3.56541 35.9101 3.76111 36.1068 3.76111 36.3492Z" fill="#2C3C4B"/>
<path d="M16.0509 36.3492C16.0509 36.5917 15.8548 36.7882 15.6132 36.7882H14.695C14.4534 36.7882 14.2573 36.5917 14.2573 36.3492C14.2573 36.1068 14.4534 35.9101 14.695 35.9101H15.6132C15.8548 35.9101 16.0509 36.1068 16.0509 36.3492Z" fill="#2C3C4B"/>
<path d="M13.6772 32.315C13.5809 32.4537 13.391 32.4876 13.2528 32.3907C13.1147 32.2941 13.0811 32.1034 13.1774 31.965L17.4873 25.7663C17.5839 25.6277 17.7737 25.594 17.912 25.6906C18.0498 25.7872 18.0837 25.978 17.9874 26.1167L13.6772 32.315Z" fill="#D9EAEC"/>
<path d="M5.05857 32.315C5.15487 32.4538 5.34508 32.4876 5.48259 32.3907C5.62077 32.2941 5.65458 32.1035 5.5584 31.9651L1.24804 25.7664C1.15186 25.6278 0.961949 25.594 0.823774 25.6906C0.685898 25.7872 0.651727 25.978 0.748324 26.1168L5.05857 32.315Z" fill="#D9EAEC"/>
<path d="M17.1598 35.366C17.1598 35.8787 16.7455 36.2943 16.2347 36.2943H1.78346C1.27294 36.2943 0.858652 35.8788 0.858652 35.366V32.6569C0.858652 32.144 1.27294 31.7286 1.78346 31.7286H16.2347C16.7455 31.7286 17.1598 32.1441 17.1598 32.6569V35.366Z" fill="#D9EAEC"/>
<path d="M14.3885 33.7412H3.63065C3.35651 33.7412 3.13446 33.9641 3.13446 34.2395V36.2943H14.8849V34.2395C14.8849 33.9641 14.6625 33.7412 14.3885 33.7412Z" fill="#2C3C4B"/>
<path d="M4.91407 35.2373C4.91407 35.3456 4.82661 35.4334 4.7186 35.4334H3.76984C3.66189 35.4334 3.57449 35.3456 3.57449 35.2373C3.57449 35.1289 3.66195 35.0411 3.76984 35.0411H4.7186C4.82655 35.0411 4.91407 35.1289 4.91407 35.2373Z" fill="#71BCC3"/>
<path d="M6.07529 35.2373C6.07529 35.3456 6.01836 35.4334 5.94817 35.4334H5.33006C5.2598 35.4334 5.20293 35.3456 5.20293 35.2373C5.20293 35.1289 5.2598 35.0411 5.33006 35.0411H5.94817C6.01836 35.0411 6.07529 35.1289 6.07529 35.2373Z" fill="#71BCC3"/>
<path d="M7.34612 35.2373C7.34612 35.3456 7.28919 35.4334 7.21894 35.4334H6.60118C6.53093 35.4334 6.47436 35.3456 6.47436 35.2373C6.47436 35.1289 6.53087 35.0411 6.60118 35.0411H7.21894C7.28919 35.0411 7.34612 35.1289 7.34612 35.2373Z" fill="#71BCC3"/>
<path d="M8.6174 35.2373C8.6174 35.3456 8.56053 35.4334 8.49028 35.4334H7.87216C7.80197 35.4334 7.74504 35.3456 7.74504 35.2373C7.74504 35.1289 7.80197 35.0411 7.87216 35.0411H8.49028C8.56053 35.0411 8.6174 35.1289 8.6174 35.2373Z" fill="#71BCC3"/>
<path d="M11.6587 35.2373C11.6587 35.3456 11.6018 35.4334 11.5316 35.4334H10.9138C10.8436 35.4334 10.7867 35.3456 10.7867 35.2373C10.7867 35.1289 10.8437 35.0411 10.9138 35.0411H11.5316C11.6019 35.0411 11.6587 35.1289 11.6587 35.2373Z" fill="#E36A5D"/>
<path d="M12.9298 35.2373C12.9298 35.3456 12.8728 35.4334 12.8026 35.4334H12.1849C12.1146 35.4334 12.0574 35.3456 12.0574 35.2373C12.0574 35.1289 12.1146 35.0411 12.1849 35.0411H12.8026C12.8729 35.0411 12.9298 35.1289 12.9298 35.2373Z" fill="#E36A5D"/>
<path d="M14.2006 35.2373C14.2006 35.3456 14.1437 35.4334 14.0735 35.4334H13.4557C13.3852 35.4334 13.3286 35.3456 13.3286 35.2373C13.3286 35.1289 13.3852 35.0411 13.4557 35.0411H14.0735C14.1438 35.0411 14.2006 35.1289 14.2006 35.2373Z" fill="#E36A5D"/>
<path d="M16.502 33.0563C16.502 33.3229 16.2864 33.539 16.0208 33.539C15.7552 33.539 15.5395 33.3229 15.5395 33.0563C15.5395 32.7896 15.7551 32.5731 16.0208 32.5731C16.2864 32.5731 16.502 32.7894 16.502 33.0563Z" fill="#DA4643"/>
<path d="M42.4973 1.92055H37.39V6.06098H42.4973V1.92055Z" fill="#BDE6DD"/>
<path d="M42.4973 1.92055H39.9438V6.06098H42.4973V1.92055Z" fill="#A9D6CC"/>
<path fill-rule="evenodd" clip-rule="evenodd" d="M42.4756 5.66645C42.92 5.9656 43.2712 6.36014 43.5205 6.83921C43.8933 7.46353 44.1079 8.1919 44.1079 8.97013C44.1079 9.29096 44.0711 9.60528 44.0017 9.90444C44.0169 10.5548 43.9714 11.1661 43.5682 11.6538C43.2994 11.979 43.1281 12.057 42.7184 12.0744C41.9813 12.7334 41.0102 13.1344 39.9436 13.1344C38.8771 13.1344 37.9038 12.7334 37.1667 12.0722C36.8091 12.0505 36.5641 11.953 36.3126 11.6473C35.9506 11.2073 35.9138 10.6848 35.942 10.119C35.8379 9.75486 35.7815 9.369 35.7815 8.97013C35.7815 6.67013 37.6458 4.80585 39.9458 4.80585C40.8975 4.80585 41.7754 5.12668 42.4778 5.66428L42.4756 5.66645Z" fill="#BDE6DD"/>
<path d="M36.1262 0.908203H43.7633C43.967 0.908203 44.1318 1.07295 44.1318 1.27672V3.43799C44.1318 3.64176 43.967 3.80651 43.7633 3.80651H36.1262C35.9225 3.80651 35.7577 3.64176 35.7577 3.43799V1.27672C35.7577 1.07295 35.9225 0.908203 36.1262 0.908203Z" fill="#CAF2E9"/>
<path fill-rule="evenodd" clip-rule="evenodd" d="M39.9438 0.908203H43.7613C43.9629 0.908203 44.1298 1.07295 44.1298 1.27672V3.43799C44.1298 3.63959 43.965 3.80651 43.7613 3.80651H39.9438V0.908203Z" fill="#BDE6DD"/>
<path fill-rule="evenodd" clip-rule="evenodd" d="M39.9438 4.80801C40.8955 4.80801 41.7732 5.12885 42.4756 5.66645C42.92 5.9656 43.2712 6.36014 43.5205 6.83921C43.8933 7.46353 44.1079 8.1919 44.1079 8.97013C44.1079 9.29096 44.0711 9.60528 44.0017 9.90444C44.0169 10.5548 43.9714 11.1661 43.5682 11.6538C43.2994 11.979 43.1281 12.057 42.7184 12.0744C41.9813 12.7334 41.0102 13.1344 39.9436 13.1344L39.9438 4.80801Z" fill="#A9D6CC"/>
<path fill-rule="evenodd" clip-rule="evenodd" d="M39.9437 4.61075C42.4843 4.61075 44.5437 6.56174 44.5437 8.97012C44.5437 9.98247 44.1795 10.9146 43.5682 11.6538C43.4381 11.8121 43.3319 11.9118 43.2084 11.9725V8.57776C43.2084 6.78068 41.7386 5.31093 39.9415 5.31093C38.1444 5.31093 36.6747 6.78068 36.6747 8.57776V11.953C36.5468 11.8879 36.4276 11.7904 36.3105 11.6451C35.7035 10.9059 35.3415 9.97813 35.3415 8.96796C35.3415 6.55957 37.4009 4.60858 39.9415 4.60858L39.9437 4.61075Z" fill="#CAF2E9"/>
<path fill-rule="evenodd" clip-rule="evenodd" d="M39.9437 4.61075C42.4843 4.61075 44.5437 6.56174 44.5437 8.97012C44.5437 9.98247 44.1795 10.9146 43.5682 11.6538C43.4381 11.8121 43.3319 11.9118 43.2084 11.9725V8.57776C43.2084 6.78068 41.7386 5.31093 39.9415 5.31093V4.60858L39.9437 4.61075Z" fill="#BDE6DD"/>
<path fill-rule="evenodd" clip-rule="evenodd" d="M39.9439 12.018C41.6217 12.018 42.9917 10.648 42.9917 8.97013C42.9917 7.29228 41.6217 5.92225 39.9439 5.92225C38.266 5.92225 36.896 7.29228 36.896 8.97013C36.896 10.648 38.266 12.018 39.9439 12.018Z" fill="#0D4D63"/>
<path fill-rule="evenodd" clip-rule="evenodd" d="M39.9439 5.92225C41.6282 5.92225 42.9917 7.28578 42.9917 8.97013C42.9917 10.6545 41.6282 12.018 39.9439 12.018V5.92225Z" fill="#063443"/>
<path fill-rule="evenodd" clip-rule="evenodd" d="M39.9437 7.04298C40.1692 7.04298 40.3534 6.85872 40.3534 6.63327C40.3534 6.40783 40.1692 6.22357 39.9437 6.22357C39.7183 6.22357 39.534 6.40783 39.534 6.63327C39.534 6.85872 39.7183 7.04298 39.9437 7.04298Z" fill="#BDE6DD"/>
<path fill-rule="evenodd" clip-rule="evenodd" d="M39.9437 11.7167C40.1692 11.7167 40.3534 11.5324 40.3534 11.307C40.3534 11.0815 40.1692 10.8973 39.9437 10.8973C39.7183 10.8973 39.534 11.0815 39.534 11.307C39.534 11.5324 39.7183 11.7167 39.9437 11.7167Z" fill="#BDE6DD"/>
<path fill-rule="evenodd" clip-rule="evenodd" d="M42.6905 8.97013C42.6905 9.19558 42.5062 9.37984 42.2807 9.37984C42.0553 9.37984 41.871 9.19775 41.871 8.97013C41.871 8.74252 42.0553 8.56042 42.2807 8.56042C42.5062 8.56042 42.6905 8.74252 42.6905 8.97013Z" fill="#BDE6DD"/>
<path fill-rule="evenodd" clip-rule="evenodd" d="M38.0166 8.97013C38.0166 9.19558 37.8324 9.37984 37.6069 9.37984C37.3815 9.37984 37.1972 9.19774 37.1972 8.97013C37.1972 8.74251 37.3815 8.56042 37.6069 8.56042C37.8324 8.56042 38.0166 8.74251 38.0166 8.97013Z" fill="#BDE6DD"/>
<path d="M41.5956 7.72799C41.8218 7.72799 42.0053 7.54456 42.0053 7.31829C42.0053 7.09201 41.8218 6.90858 41.5956 6.90858C41.3693 6.90858 41.1859 7.09201 41.1859 7.31829C41.1859 7.54456 41.3693 7.72799 41.5956 7.72799Z" fill="#BDE6DD"/>
<path fill-rule="evenodd" clip-rule="evenodd" d="M38.5823 10.3336C38.7427 10.4941 38.7427 10.752 38.5823 10.9124C38.4219 11.0729 38.1639 11.0729 38.0035 10.9124C37.8431 10.752 37.8431 10.4941 38.0035 10.3336C38.1639 10.1732 38.4219 10.1732 38.5823 10.3336Z" fill="#BDE6DD"/>
<path fill-rule="evenodd" clip-rule="evenodd" d="M41.886 10.9124C41.7255 11.0729 41.4676 11.0729 41.3072 10.9124C41.1468 10.752 41.1468 10.4941 41.3072 10.3337C41.4676 10.1732 41.7255 10.1732 41.886 10.3337C42.0464 10.4941 42.0464 10.752 41.886 10.9124Z" fill="#BDE6DD"/>
<path fill-rule="evenodd" clip-rule="evenodd" d="M38.5824 7.60876C38.422 7.76918 38.164 7.76918 38.0036 7.60876C37.8432 7.44835 37.8432 7.19038 38.0036 7.02997C38.164 6.86955 38.422 6.86955 38.5824 7.02997C38.7428 7.19038 38.7428 7.44835 38.5824 7.60876Z" fill="#BDE6DD"/>
<path fill-rule="evenodd" clip-rule="evenodd" d="M39.9438 6.22573C40.1692 6.22573 40.3535 6.40782 40.3535 6.63544C40.3535 6.86305 40.1692 7.04515 39.9438 7.04515V6.22573Z" fill="#A9D6CC"/>
<path fill-rule="evenodd" clip-rule="evenodd" d="M39.9437 10.8973C40.1692 10.8973 40.3534 11.0815 40.3534 11.307C40.3534 11.5324 40.1692 11.7167 39.9437 11.7167V10.8973Z" fill="#A9D6CC"/>
<path fill-rule="evenodd" clip-rule="evenodd" d="M42.6905 8.97013C42.6905 9.19558 42.5062 9.37984 42.2807 9.37984C42.0553 9.37984 41.871 9.19775 41.871 8.97013C41.871 8.74252 42.0553 8.56042 42.2807 8.56042C42.5062 8.56042 42.6905 8.74252 42.6905 8.97013Z" fill="#A9D6CC"/>
<path fill-rule="evenodd" clip-rule="evenodd" d="M41.8861 7.02997C42.0466 7.19039 42.0466 7.44835 41.8861 7.60876C41.7257 7.76918 41.4678 7.76918 41.3073 7.60876C41.1469 7.44835 41.1469 7.19039 41.3073 7.02997C41.4678 6.86956 41.7257 6.86956 41.8861 7.02997Z" fill="#A9D6CC"/>
<path fill-rule="evenodd" clip-rule="evenodd" d="M41.886 10.9124C41.7255 11.0729 41.4676 11.0729 41.3072 10.9124C41.1468 10.752 41.1468 10.4941 41.3072 10.3337C41.4676 10.1732 41.7255 10.1732 41.886 10.3337C42.0464 10.4941 42.0464 10.752 41.886 10.9124Z" fill="#A9D6CC"/>
<path fill-rule="evenodd" clip-rule="evenodd" d="M39.9437 10.3033C40.6786 10.3033 41.2769 9.705 41.2769 8.97012C41.2769 8.23525 40.6786 7.63695 39.9437 7.63695C39.2088 7.63695 38.6105 8.23525 38.6105 8.97012C38.6105 9.705 39.2088 10.3033 39.9437 10.3033Z" fill="#BDE6DD"/>
<path fill-rule="evenodd" clip-rule="evenodd" d="M39.9437 7.63695C40.6808 7.63695 41.2769 8.23308 41.2769 8.97012C41.2769 9.70716 40.6786 10.3033 39.9437 10.3033L39.9438 7.63478L39.9437 7.63695Z" fill="#A9D6CC"/>
<path fill-rule="evenodd" clip-rule="evenodd" d="M39.9438 9.95646C40.4858 9.95646 40.928 9.51423 40.928 8.97229C40.928 8.43035 40.4858 7.98596 39.9438 7.98596C39.4019 7.98596 38.9597 8.42818 38.9597 8.97229C38.9597 9.5164 39.4019 9.95646 39.9438 9.95646Z" fill="#063443"/>
<path fill-rule="evenodd" clip-rule="evenodd" d="M39.9438 7.98596C40.4879 7.98596 40.928 8.42602 40.928 8.97013C40.928 9.51424 40.4879 9.95429 39.9438 9.95429V7.9838L39.9438 7.98596Z" fill="#03212B"/>
</svg>
