<svg width="36" height="36" viewBox="0 0 36 36" fill="none" xmlns="http://www.w3.org/2000/svg">
<path d="M0.959961 16.6611C0.959961 7.82459 8.12341 0.661133 16.96 0.661133H17.5897C26.4263 0.661133 33.5897 7.82458 33.5897 16.6611V17.2909C33.5897 26.1275 26.4263 33.2909 17.5897 33.2909H16.96C8.12342 33.2909 0.959961 26.1275 0.959961 17.2909V16.6611Z" fill="#4F4F4F"/>
<path fill-rule="evenodd" clip-rule="evenodd" d="M7.81876 14.6262H6.60691V15.6346H6.0357V16.723H6.60691V18.0135C6.60691 19.0274 7.43363 19.6727 8.45385 19.6727H9.16953V18.6182H8.45088C8.28343 18.6182 8.12284 18.5521 8.00443 18.4346C7.88603 18.317 7.81951 18.1576 7.81951 17.9914V16.723L8.61466 16.7208C8.76495 16.7149 8.90703 16.6512 9.01097 16.5433C9.1149 16.4354 9.17255 16.2916 9.17175 16.1423V15.6346H7.821L7.81876 14.6262ZM14.7739 18.0382C14.773 18.2047 14.7058 18.364 14.5869 18.4815C14.4681 18.5989 14.3072 18.6649 14.1395 18.665C13.9721 18.665 13.8115 18.5989 13.6931 18.4814C13.5747 18.3639 13.5081 18.2044 13.5081 18.0382V16.2013C13.5079 16.1256 13.4924 16.0508 13.4626 15.9811C13.4329 15.9115 13.3894 15.8484 13.3348 15.7957C13.2802 15.7429 13.2155 15.7015 13.1446 15.6738C13.0737 15.6461 12.9979 15.6328 12.9217 15.6346H12.2903V17.8807C12.2903 18.8976 12.8437 19.7213 14.138 19.7213C15.4323 19.7213 15.9857 18.8976 15.9857 17.8807V15.6346H14.7724V18.0382H14.7739ZM20.1502 17.7838C20.1412 16.5383 19.4605 15.5594 18.1929 15.5594C17.1055 15.5594 16.2271 16.4317 16.2271 17.6344C16.2271 18.9301 17.0245 19.6992 18.2018 19.7213C18.5654 19.7207 18.9221 19.6225 19.2341 19.4373C19.5462 19.2521 19.8021 18.9867 19.9749 18.669L18.8737 18.3833C18.7403 18.5831 18.4856 18.7214 18.1929 18.7214C17.7636 18.7214 17.4171 18.4154 17.4052 18.0452H20.1502C20.1528 17.9866 20.1502 17.8453 20.1502 17.7838ZM17.3989 17.206C17.4111 16.8325 17.7602 16.5269 18.1929 16.5269C18.6315 16.5269 18.9836 16.8288 18.9896 17.206H17.3989ZM11.1372 15.6346C10.9163 15.6345 10.6975 15.6777 10.4934 15.7616C10.2893 15.8456 10.1039 15.9686 9.94768 16.1237C9.7915 16.2788 9.66765 16.463 9.5832 16.6656C9.49875 16.8683 9.45535 17.0855 9.4555 17.3048V19.6697H10.667V17.3638C10.667 17.2812 10.6834 17.1994 10.7154 17.1232C10.7473 17.0469 10.7941 16.9777 10.8531 16.9194C10.9121 16.8612 10.9821 16.8151 11.0591 16.7838C11.136 16.7525 11.2185 16.7366 11.3017 16.737H12.0073V15.6346H11.1372Z" fill="white"/>
<path d="M25.6558 14.1202C25.6218 14.1202 25.588 14.1202 25.5544 14.1202H23.258V15.949C23.258 16.0374 23.2756 16.1249 23.3097 16.2065C23.3438 16.2882 23.3937 16.3624 23.4567 16.4248C23.5197 16.4873 23.5945 16.5368 23.6767 16.5705C23.759 16.6043 23.8472 16.6216 23.9362 16.6215C24.0589 16.6215 24.1793 16.5885 24.2845 16.5259C24.3897 16.4633 24.4759 16.3735 24.5338 16.2661V16.2687C24.647 16.0709 24.8115 15.9069 25.0102 15.7936C25.2088 15.6803 25.4345 15.622 25.6636 15.6245C26.0041 15.6282 26.3292 15.766 26.5674 16.0076C26.8057 16.2491 26.9376 16.5747 26.9341 16.9128C26.9307 17.2508 26.7922 17.5737 26.549 17.8103C26.3059 18.047 25.9781 18.1781 25.6376 18.1749C25.413 18.1727 25.193 18.112 24.9995 17.9989C24.806 17.8858 24.6458 17.7243 24.5349 17.5304C24.4771 17.4229 24.391 17.333 24.2857 17.2704C24.1805 17.2077 24.06 17.1746 23.9373 17.1746C23.8483 17.1745 23.7601 17.1919 23.6778 17.2257C23.5955 17.2595 23.5208 17.3091 23.4578 17.3715C23.3948 17.434 23.3449 17.5082 23.3108 17.5899C23.2767 17.6716 23.2592 17.7591 23.2592 17.8475V19.6693H25.6509C26.3829 19.6628 27.0831 19.3717 27.6012 18.8584C28.1193 18.3451 28.414 17.6505 28.4219 16.9239C28.4257 16.5595 28.3572 16.1979 28.2203 15.8597C28.0833 15.5216 27.8806 15.2136 27.6238 14.9533C27.3669 14.6929 27.0609 14.4853 26.7232 14.3424C26.3856 14.1995 26.0228 14.124 25.6558 14.1202Z" fill="white"/>
<path d="M22.3046 16.8287C22.2433 16.7914 22.1926 16.739 22.1574 16.6766C22.1222 16.6143 22.1037 16.544 22.1037 16.4726C22.1037 16.4006 22.1224 16.3299 22.1581 16.2673C22.1938 16.2047 22.2451 16.1524 22.3072 16.1153C22.4676 16.0163 22.5998 15.8783 22.6915 15.7145C22.7832 15.5506 22.8313 15.3662 22.8313 15.1788C22.8313 14.8862 22.7142 14.6056 22.5058 14.3987C22.2974 14.1918 22.0148 14.0756 21.72 14.0756C21.5741 14.0755 21.4296 14.104 21.2948 14.1594C21.16 14.2148 21.0375 14.2961 20.9343 14.3985C20.8311 14.5009 20.7493 14.6225 20.6934 14.7563C20.6376 14.8901 20.6088 15.0335 20.6088 15.1784C20.6088 15.3645 20.6562 15.5476 20.7467 15.7106C20.8371 15.8735 20.9677 16.0111 21.1262 16.1105C21.1902 16.1471 21.2434 16.1998 21.2804 16.2633C21.3174 16.3268 21.3368 16.3988 21.3368 16.4722C21.3368 16.5431 21.3185 16.6129 21.2838 16.6749C21.2491 16.7369 21.1991 16.7891 21.1384 16.8265C20.9765 16.9251 20.8427 17.0633 20.7499 17.228C20.6572 17.3926 20.6086 17.5781 20.6088 17.7667V18.6188C20.6088 18.7637 20.6375 18.9072 20.6933 19.041C20.7491 19.1749 20.831 19.2965 20.9342 19.399C21.0374 19.5014 21.1599 19.5827 21.2947 19.6381C21.4296 19.6935 21.5741 19.722 21.72 19.722C22.0148 19.722 22.2974 19.6058 22.5058 19.3989C22.7142 19.192 22.8313 18.9114 22.8313 18.6188V17.7667C22.8314 17.5788 22.783 17.3939 22.6908 17.2297C22.5987 17.0655 22.4657 16.9275 22.3046 16.8287Z" fill="white"/>
<path d="M35.0395 24.3288V34.6702C35.0387 34.8478 34.9676 35.0178 34.8419 35.1431C34.7161 35.2684 34.5459 35.3387 34.3685 35.3387H27.7348C27.5568 35.3387 27.3861 35.2679 27.2603 35.142C27.1345 35.0161 27.0638 34.8452 27.0638 34.6671V22.3608C27.0638 22.1827 27.1345 22.0119 27.2603 21.8859C27.3861 21.76 27.5568 21.6892 27.7348 21.6892H32.4988C32.5273 21.6888 32.5557 21.6941 32.5822 21.7048C32.6087 21.7155 32.6328 21.7314 32.6531 21.7515L34.9816 24.1774C35.0199 24.2184 35.0407 24.2727 35.0395 24.3288Z" fill="#D71F26"/>
<path d="M34.9796 24.1806L32.6518 21.7579C32.6315 21.7377 32.6074 21.7218 32.5809 21.7111C32.5543 21.7004 32.526 21.6952 32.4974 21.6956H31.0509V35.3388L34.3685 35.3387C34.5465 35.3387 34.7176 35.268 34.8435 35.1421C34.9693 35.0162 35.04 34.8453 35.04 34.6672V24.3258C35.0389 24.2715 35.0173 24.2197 34.9796 24.1806Z" fill="#EE323E"/>
<path d="M28.3259 26.9079V32.658C28.3259 33.1579 28.7308 33.5632 29.2303 33.5632H32.8696C33.3691 33.5632 33.774 33.1579 33.774 32.658V26.9079C33.774 26.408 33.3691 26.0027 32.8696 26.0027H29.2303C28.7308 26.0027 28.3259 26.408 28.3259 26.9079Z" fill="#FFE078"/>
<path d="M28.2948 27.0531V32.5141C28.2948 33.1115 28.682 33.5974 29.1581 33.5974H32.9468C33.423 33.5974 33.8101 33.1115 33.8101 32.5141V27.0531C33.8101 26.4556 33.423 25.9697 32.9468 25.9697H29.1581C28.6801 25.9691 28.2948 26.455 28.2948 27.0531ZM29.1581 33.532C28.7187 33.532 28.3614 33.0766 28.3614 32.5159V29.9935H28.6253C28.6253 30.0035 28.6297 30.0128 28.6309 30.0234C28.6372 30.0608 28.6446 30.0975 28.654 30.1337C28.6583 30.1517 28.6633 30.1698 28.6683 30.1879C28.6782 30.2215 28.6888 30.2539 28.7006 30.2863C28.7056 30.3 28.71 30.3137 28.7156 30.3274C28.7324 30.3698 28.7517 30.4109 28.7722 30.452C28.7809 30.4676 28.7897 30.4832 28.799 30.4987C28.8133 30.5243 28.8282 30.5492 28.8444 30.5735C28.8525 30.586 28.8594 30.5997 28.8687 30.6128C28.8874 30.6395 28.9073 30.6657 28.9278 30.69L28.9365 30.7012C28.9571 30.7249 28.9776 30.7479 29.0031 30.7741L29.01 30.781C29.0324 30.8034 29.0548 30.8239 29.0785 30.8433L29.0878 30.852C29.1403 30.8958 29.1965 30.935 29.2558 30.9691L29.2795 30.9816L29.3442 31.0139L29.3791 31.0283L29.3996 31.037V33.5289L29.1581 33.532ZM29.4693 33.532V31.0613C29.4793 31.0644 29.4886 31.065 29.4986 31.0681C29.5317 31.0777 29.5654 31.0854 29.5994 31.0912L29.6417 31.0981C29.6861 31.1045 29.7308 31.1078 29.7756 31.108C30.0145 31.1066 30.246 31.0243 30.4322 30.8744C30.4558 30.8571 30.4804 30.8411 30.5057 30.8264V33.532H29.4693ZM30.5741 33.532V30.7909C30.61 30.7723 30.647 30.7561 30.6849 30.7423L30.7179 30.7324C30.7509 30.7224 30.7845 30.7137 30.8187 30.7068L30.8548 30.7006C30.8999 30.6934 30.9455 30.6897 30.9912 30.6894H31.158C31.2049 30.6895 31.2517 30.6935 31.298 30.7012C31.3154 30.7012 31.3316 30.7081 31.3484 30.7118C31.3768 30.7172 31.4049 30.7243 31.4325 30.733C31.4518 30.7386 31.4704 30.7461 31.4891 30.7535C31.5078 30.761 31.5376 30.7735 31.5613 30.7853C31.5849 30.7972 31.5974 30.804 31.6148 30.814L31.6428 30.832V33.532H30.5741ZM31.7113 33.532V30.8719L31.7157 30.875C31.9019 31.0249 32.1334 31.1072 32.3723 31.1086C32.414 31.1083 32.4555 31.1051 32.4968 31.0993H32.5142C32.5537 31.0935 32.5927 31.0854 32.6312 31.075H32.6381V33.532H31.7113ZM33.746 29.996V32.5159C33.746 33.0766 33.3887 33.532 32.9499 33.532H32.7084V31.052C32.7196 31.0482 32.7296 31.0426 32.7408 31.0382C32.7644 31.0289 32.7881 31.0189 32.8117 31.0077C32.8354 30.9965 32.8491 30.9909 32.8665 30.9809C32.8989 30.9635 32.9288 30.9442 32.9617 30.9236C32.9798 30.9112 32.9972 30.8975 33.0146 30.8844C33.0321 30.8713 33.0501 30.857 33.0676 30.842L33.1155 30.7996C33.1441 30.7722 33.1721 30.7436 33.1983 30.7131C33.207 30.7031 33.2145 30.6931 33.2225 30.6831C33.2456 30.6551 33.2674 30.6258 33.2885 30.5953L33.3097 30.5635C33.3642 30.4785 33.4094 30.3878 33.4447 30.2932L33.4497 30.2801C33.4833 30.1872 33.5075 30.0912 33.5219 29.9935L33.746 29.996ZM32.9499 26.0388C33.3887 26.0388 33.746 26.4942 33.746 27.0549V29.5755H33.5232C33.5149 29.5125 33.5026 29.4501 33.4864 29.3886C33.3744 28.965 33.0844 28.6286 32.7066 28.4996V26.0388H32.9499ZM32.6418 26.0388V28.5482L32.6648 28.5557C33.0383 28.674 33.3252 29.0061 33.4292 29.4278C33.4445 29.4893 33.4555 29.5518 33.4622 29.6147L33.4653 29.6446H33.746V29.9312H33.4609V29.9374L33.4541 29.9842L33.4503 30.0078V30.0184C33.446 30.0427 33.4416 30.0676 33.4367 30.0919C33.4367 30.1 33.4329 30.1081 33.4304 30.1169C33.4062 30.2187 33.3703 30.3174 33.3234 30.4109L33.3134 30.429C33.2947 30.4651 33.2742 30.4994 33.2512 30.533L33.2325 30.5617C33.2085 30.5968 33.1828 30.6307 33.1553 30.6632C33.1447 30.6757 33.1329 30.6875 33.1217 30.6993C33.1105 30.7112 33.0856 30.7373 33.0669 30.7548C33.0483 30.7722 33.0377 30.7828 33.0221 30.7959C33.0066 30.809 32.9798 30.8308 32.9599 30.847C32.94 30.8632 32.9126 30.88 32.8883 30.895C32.864 30.9099 32.8503 30.918 32.8304 30.9286C32.8105 30.9392 32.7956 30.9467 32.7775 30.9548C32.7467 30.9692 32.7151 30.9819 32.6829 30.9928L32.6661 30.9984C32.621 31.0123 32.575 31.0233 32.5285 31.0314H32.5105C32.4654 31.0385 32.4198 31.0423 32.3742 31.0426C32.1506 31.0412 31.9341 30.9641 31.7598 30.8239L31.743 30.8127L31.7125 30.7909L31.6976 30.781L31.6883 30.776L31.6459 30.7473V30.7504L31.5993 30.7255C31.5744 30.7131 31.5488 30.7025 31.5227 30.6919C31.4966 30.6813 31.4816 30.675 31.4605 30.6682C31.431 30.6591 31.4011 30.6516 31.3708 30.6458C31.3522 30.6407 31.3333 30.6365 31.3142 30.6333C31.2638 30.6251 31.2128 30.6209 31.1617 30.6208H30.993C30.9449 30.621 30.8968 30.625 30.8492 30.6327C30.8318 30.6327 30.8156 30.6389 30.7988 30.642C30.7677 30.6483 30.7366 30.6557 30.7073 30.6645C30.6899 30.6701 30.6725 30.675 30.6557 30.6813C30.6283 30.6912 30.6021 30.7031 30.576 30.7155V30.7112L30.5293 30.7367H30.5262L30.5125 30.7442C30.4722 30.7668 30.4335 30.7922 30.3967 30.8202C30.2223 30.9605 30.0056 31.0375 29.7818 31.0389C29.733 31.0383 29.6843 31.0339 29.6361 31.0258L29.6013 31.0208C29.558 31.012 29.5154 31.0003 29.4737 30.9859C29.2371 30.9005 29.036 30.7379 28.9029 30.5243C28.8886 30.5019 28.8743 30.4794 28.8612 30.4564C28.8482 30.4333 28.8413 30.419 28.832 30.4003C28.8145 30.3661 28.799 30.3318 28.7847 30.2957C28.7778 30.2788 28.7722 30.2614 28.766 30.2439C28.7548 30.2116 28.7442 30.1817 28.7355 30.1461C28.7305 30.1287 28.7262 30.1106 28.7218 30.0926C28.7139 30.056 28.7071 30.0186 28.7013 29.9804C28.7013 29.9711 28.6982 29.9624 28.6969 29.953L28.6932 29.9237H28.3571V29.6372H28.6782L28.6814 29.6073C28.6811 29.605 28.6811 29.6027 28.6814 29.6004C28.687 29.5531 28.6957 29.5057 28.7056 29.4596L28.715 29.4197C28.7262 29.3768 28.738 29.3344 28.7529 29.2952C28.7529 29.2902 28.756 29.2846 28.7579 29.279C28.7749 29.234 28.7942 29.1899 28.8158 29.1469C28.8214 29.135 28.8276 29.1238 28.8338 29.1126C28.8528 29.0757 28.8735 29.0397 28.8961 29.0048C29.0123 28.8248 29.1772 28.6816 29.3716 28.5918L29.3822 28.5875C29.4052 28.5775 29.4289 28.5688 29.4519 28.5607C29.4958 28.5456 29.5408 28.5335 29.5864 28.5245L29.6181 28.5195C29.6669 28.5115 29.7162 28.5071 29.7656 28.5065C29.9886 28.5078 30.2046 28.5844 30.3787 28.7239C30.4159 28.7524 30.4552 28.778 30.4963 28.8005L30.5094 28.808H30.5138L30.5629 28.8348V28.8304C30.5897 28.8429 30.6165 28.8553 30.6438 28.8653L30.6843 28.8778C30.7187 28.8884 30.7536 28.8971 30.7889 28.9039C30.8026 28.9039 30.8156 28.9095 30.8293 28.9114C30.8777 28.9188 30.9266 28.9228 30.9756 28.9232H31.158C31.347 28.9242 31.5321 28.8694 31.6901 28.7656L31.7051 28.7557V26.0364L32.6418 26.0388ZM31.6459 26.0388V28.7257C31.4994 28.8162 31.3301 28.8627 31.158 28.8597H30.9812C30.9358 28.8594 30.8904 28.8557 30.8455 28.8485L30.8107 28.8422C30.7755 28.8359 30.7408 28.8273 30.7067 28.8167L30.6781 28.808C30.6406 28.7943 30.604 28.7783 30.5685 28.76V26.0364L31.6459 26.0388ZM30.5088 26.0388V28.7226C30.4827 28.7078 30.4576 28.6913 30.4335 28.6734C30.2474 28.5249 30.0167 28.4434 29.7787 28.4423C29.7335 28.4428 29.6884 28.4461 29.6436 28.4523L29.6038 28.4585C29.567 28.4651 29.5307 28.4736 29.4949 28.484L29.4724 28.489V26.0364L30.5088 26.0388ZM29.404 28.5133L29.381 28.5227L29.3666 28.5289L29.3505 28.5357C29.3324 28.5438 29.315 28.5532 29.2944 28.5638L29.282 28.57L29.2614 28.5812C29.2322 28.598 29.2036 28.6155 29.1762 28.6348L29.16 28.6473C29.1376 28.6635 29.1152 28.6803 29.0934 28.6983L29.0735 28.7164C29.0536 28.7338 29.0343 28.7519 29.0156 28.7706L28.9975 28.7899C28.982 28.8061 28.967 28.8229 28.9521 28.8404L28.9484 28.8441L28.9421 28.851L28.9278 28.8684C28.916 28.8834 28.9036 28.9008 28.8911 28.9176L28.8787 28.9338L28.8706 28.945L28.865 28.9531C28.86 28.96 28.8563 28.9687 28.8513 28.9756C28.8307 29.0067 28.8121 29.0379 28.794 29.0721L28.7747 29.107C28.7536 29.1494 28.7336 29.1936 28.7162 29.2385C28.7125 29.2478 28.71 29.2578 28.7062 29.2671C28.6926 29.3051 28.6807 29.3444 28.6695 29.3842C28.6664 29.3973 28.6627 29.4104 28.6596 29.4241C28.6474 29.4734 28.6378 29.5233 28.6309 29.5736H28.3571V27.0531C28.3571 26.4924 28.7143 26.037 29.1538 26.037H29.3953L29.404 28.5133Z" fill="#856628"/>
</svg>
