<svg width="100%" height="80%" viewBox="0 0 28 48"  preserveAspectRatio="xMidYMid meet"  fill="none" xmlns="http://www.w3.org/2000/svg">
<path d="M11.7193 44.6517C11.7193 45.0029 11.5764 45.3397 11.3219 45.5882C11.0674 45.8366 10.7222 45.9765 10.3621 45.9769C10.1836 45.9769 10.0069 45.9427 9.84204 45.8761C9.67716 45.8095 9.52734 45.7119 9.40114 45.5888C9.27495 45.4657 9.17484 45.3197 9.10654 45.1589C9.03825 44.9981 9.00309 44.8258 9.00309 44.6517V44.6192C9.00359 44.268 9.14698 43.9314 9.4018 43.6833C9.65661 43.4352 10.002 43.2958 10.3621 43.2958C10.7221 43.2958 11.0673 43.4352 11.3218 43.6834C11.5763 43.9316 11.7193 44.2682 11.7193 44.6192V44.6517Z" fill="#8FFFFD"/>
<path d="M16.1579 44.6029C16.1584 44.9929 16.3176 45.3667 16.6006 45.6423C16.8836 45.9179 17.2672 46.0727 17.6671 46.0727H18.1955C18.5953 46.0727 18.9787 45.9179 19.2614 45.6422C19.5441 45.3666 19.7029 44.9927 19.7029 44.6029C19.7029 44.2131 19.5441 43.8392 19.2614 43.5636C18.9787 43.2879 18.5953 43.1331 18.1955 43.1331H17.6671C17.2672 43.1331 16.8836 43.2879 16.6006 43.5635C16.3176 43.8391 16.1584 44.2129 16.1579 44.6029Z" fill="#8FFFFD"/>
<path d="M13.6049 42.2942H14.3465C14.5982 42.2942 14.8475 42.3426 15.0801 42.4365C15.3127 42.5305 15.5241 42.6682 15.7021 42.8418C15.8801 43.0153 16.0213 43.2214 16.1177 43.4482C16.214 43.675 16.2636 43.9181 16.2636 44.1636V44.9139C16.2633 45.1598 16.2134 45.4032 16.1166 45.6302C16.0198 45.8573 15.8781 46.0635 15.6996 46.2371C15.521 46.4107 15.3091 46.5483 15.076 46.642C14.8429 46.7357 14.5931 46.7837 14.3409 46.7833H13.5993C13.3475 46.7833 13.0983 46.7349 12.8657 46.641C12.6331 46.547 12.4217 46.4093 12.2437 46.2357C12.0657 46.0621 11.9245 45.8561 11.8281 45.6293C11.7318 45.4025 11.6822 45.1594 11.6822 44.9139V44.1636C11.6822 43.9177 11.732 43.6741 11.8287 43.447C11.9254 43.2198 12.0671 43.0135 12.2457 42.8398C12.4243 42.6662 12.6363 42.5286 12.8695 42.435C13.1027 42.3413 13.3526 42.2935 13.6049 42.2942Z" fill="white"/>
<path d="M23.1922 3.12785C23.1922 3.99564 19.41 4.70073 14.7451 4.70073C10.0803 4.70073 6.29619 3.99564 6.29619 3.12785C6.29619 2.26006 10.0785 1.55498 14.7451 1.55498C19.4118 1.55498 23.1922 2.26006 23.1922 3.12785Z" fill="#FFFDFA"/>
<path d="M13.9965 46.3837C13.492 46.3837 13.0081 46.1883 12.6514 45.8404C12.2946 45.4925 12.0942 45.0207 12.0942 44.5288C12.0942 44.0368 12.2946 43.565 12.6514 43.2172C13.0081 42.8693 13.492 42.6739 13.9965 42.6739C14.1027 42.6747 14.2088 42.6837 14.3135 42.701V41.6271H2.26215V5.53417H14.3135V3.76243H8.24705C8.14345 3.76741 8.03989 3.75181 7.94266 3.71657C7.84543 3.68134 7.75655 3.62721 7.68142 3.55747C7.60629 3.48773 7.54648 3.40383 7.50561 3.31087C7.46474 3.21791 7.44366 3.11782 7.44366 3.01667C7.44366 2.91552 7.46474 2.81543 7.50561 2.72247C7.54648 2.62951 7.60629 2.54561 7.68142 2.47587C7.75655 2.40613 7.84543 2.352 7.94266 2.31677C8.03989 2.28154 8.14345 2.26594 8.24705 2.27091H14.3135V0.500977H3.25963C2.39691 0.503362 1.57023 0.838602 0.960188 1.43345C0.35015 2.0283 0.00635231 2.83441 0.00390625 3.67565V44.3263C0.0058668 45.1675 0.349568 45.9737 0.959764 46.5684C1.56996 47.163 2.39693 47.4977 3.25963 47.4992H14.321V46.353C14.2138 46.3718 14.1053 46.3821 13.9965 46.3837ZM10.6759 45.2682C10.5255 45.2682 10.3786 45.2247 10.2535 45.1433C10.1285 45.0618 10.0311 44.9461 9.97357 44.8106C9.91604 44.6752 9.90098 44.5262 9.93031 44.3824C9.95964 44.2386 10.032 44.1065 10.1384 44.0028C10.2447 43.8992 10.3801 43.8286 10.5276 43.8C10.675 43.7714 10.8279 43.7861 10.9668 43.8422C11.1057 43.8983 11.2244 43.9933 11.3079 44.1152C11.3915 44.2371 11.436 44.3804 11.436 44.527C11.4355 44.7234 11.3553 44.9117 11.2128 45.0506C11.0704 45.1895 10.8773 45.2677 10.6759 45.2682Z" fill="#D71F26"/>
<path d="M24.7404 0.500977H14.3135V2.27091H19.7474C19.9437 2.28034 20.1288 2.36303 20.2643 2.50185C20.3999 2.64067 20.4754 2.825 20.4754 3.01667C20.4754 3.20834 20.3999 3.39267 20.2643 3.53149C20.1288 3.67032 19.9437 3.753 19.7474 3.76243H14.3135V5.53417H25.7323V41.6271H14.3135V42.701C14.7571 42.7732 15.1597 42.9965 15.4504 43.3312C15.741 43.6659 15.9005 44.0902 15.9005 44.5288C15.9005 44.9673 15.741 45.3917 15.4504 45.7264C15.1597 46.061 14.7567 46.2843 14.3131 46.3566V47.4992H24.7404C25.6032 47.4973 26.4302 47.1622 27.0404 46.5672C27.6505 45.9723 27.9941 45.1659 27.9961 44.3245V3.67565C27.9941 2.83426 27.6505 2.02788 27.0404 1.43293C26.4302 0.837974 25.6032 0.502887 24.7404 0.500977ZM17.3186 45.2682C17.1682 45.2682 17.0213 45.2247 16.8962 45.1433C16.7712 45.0618 16.6738 44.9461 16.6163 44.8106C16.5587 44.6752 16.5437 44.5262 16.573 44.3824C16.6023 44.2386 16.6747 44.1065 16.7811 44.0028C16.8874 43.8992 17.0228 43.8286 17.1703 43.8C17.3177 43.7714 17.4706 43.7861 17.6095 43.8422C17.7484 43.8983 17.8671 43.9933 17.9506 44.1152C18.0342 44.2371 18.0787 44.3804 18.0787 44.527C18.0782 44.7234 17.998 44.9117 17.8555 45.0506C17.7131 45.1895 17.52 45.2677 17.3186 45.2682Z" fill="#EE323E"/>
<path d="M2.26176 5.62095V41.4409L25.5487 5.62095H2.26176Z" fill="#C3E1DB"/>
<path d="M2.26176 41.4409V41.7139H25.7323V5.62095H25.5487L2.26176 41.4409Z" fill="#9AD2D9"/>
<path d="M13.5117 24.6679H14.2031C14.2031 25.024 14.6766 25.3273 15.2401 25.3273C15.8036 25.3273 16.2771 25.024 16.2771 24.6679C16.2771 24.3053 15.9176 24.1734 15.1571 23.9986C14.4243 23.8239 13.5117 23.6063 13.5117 22.6898C13.5117 22.0997 14.0199 21.5985 14.7216 21.4304V20.7117H15.7586V21.4304C16.4604 21.5985 16.9685 22.0997 16.9685 22.6898H16.2771C16.2771 22.3337 15.8036 22.0304 15.2401 22.0304C14.6766 22.0304 14.2031 22.3337 14.2031 22.6898C14.2031 23.0524 14.5626 23.1843 15.3231 23.3591C16.0559 23.5338 16.9685 23.7514 16.9685 24.6679C16.9685 25.2581 16.4604 25.7592 15.7586 25.9273V26.646H14.7216V25.9273C14.0199 25.7592 13.5117 25.2581 13.5117 24.6679Z" fill="#333333"/>
<path d="M21.1315 24.0824C21.1315 25.8941 21.4132 28.134 19.8714 29.2218C18.6261 30.1003 15.7531 29.6171 13.9911 29.6171C12.5335 29.6171 9.66073 29.8445 8.53086 29.2218C6.60396 28.1598 6.8508 26.1469 6.8508 24.0824C6.8508 20.8073 10.0476 18.1523 13.9911 18.1523C17.9346 18.1523 21.1315 20.8073 21.1315 24.0824Z" fill="url(#paint0_linear_83_6812)"/>
<path d="M10.961 23.4784L11.7328 24.2129C11.3469 24.5802 11.5469 25.3962 12.1759 25.9948C12.8049 26.5934 13.6623 26.7837 14.0482 26.4164C14.4412 26.0424 14.1828 25.5244 13.5232 24.5363C12.8945 23.5775 12.1116 22.3835 13.1049 21.4382C13.7445 20.8295 14.8548 20.8525 15.8204 21.4246L16.5994 20.6833L17.757 21.785L16.9781 22.5263C17.5792 23.4453 17.6034 24.502 16.9638 25.1107L16.192 24.3762C16.5779 24.0089 16.378 23.1929 15.749 22.5943C15.12 21.9957 14.2626 21.8054 13.8767 22.1727C13.4836 22.5467 13.742 23.0647 14.4016 24.0528C15.0303 25.0116 15.8133 26.2056 14.82 27.1509C14.1804 27.7596 13.07 27.7366 12.1044 27.1645L11.3255 27.9058L10.1678 26.8041L10.9468 26.0628C10.3456 25.1438 10.3215 24.0871 10.961 23.4784Z" fill="#333333"/>
<path fill-rule="evenodd" clip-rule="evenodd" d="M6.70076 28.5774C5.24399 25.7284 5.75881 22.1963 8.24522 19.83C11.3809 16.8458 16.4648 16.8458 19.6005 19.83C22.0869 22.1963 22.6017 25.7284 21.145 28.5774H24.5738V30.2755H4.35164V28.5774H6.70076ZM9.50692 21.0307C11.9458 18.7097 15.8999 18.7097 18.3388 21.0307C20.4957 23.0834 20.745 26.2639 19.0869 28.5774H8.75877C7.10067 26.2639 7.35005 23.0834 9.50692 21.0307Z" fill="#333333"/>
<defs>
<linearGradient id="paint0_linear_83_6812" x1="29.0328" y1="0.500974" x2="0.00390632" y2="0.499559" gradientUnits="userSpaceOnUse">
<stop stop-color="#EBB100"/>
<stop offset="1" stop-color="#F88300"/>
</linearGradient>
</defs>
</svg>
