<svg width="100%" height="85%" viewBox="0 0 48 26"  preserveAspectRatio="xMidYMid meet" fill="none" xmlns="http://www.w3.org/2000/svg">
<path d="M32.8559 12.9197V6.25196C32.8559 5.9027 32.8296 5.54815 32.7769 5.1883C32.7242 4.81788 32.624 4.48449 32.4764 4.18815C32.3394 3.88122 32.1391 3.63251 31.8756 3.442C31.6226 3.24091 31.2905 3.14037 30.8794 3.14037C30.3523 3.14037 29.9043 3.25679 29.5353 3.48963C29.1664 3.72247 28.8607 4.03469 28.6182 4.42628C28.3863 4.81788 28.2124 5.26239 28.0964 5.75982C27.991 6.25725 27.9383 6.77056 27.9383 7.29974V12.9197H25.8985V6.25196C25.8985 5.9027 25.8721 5.54815 25.8194 5.1883C25.7667 4.81788 25.6666 4.48449 25.519 4.18815C25.3714 3.88122 25.1658 3.63251 24.9023 3.442C24.6493 3.24091 24.312 3.14037 23.8903 3.14037C23.3632 3.14037 22.9152 3.25679 22.5462 3.48963C22.1773 3.72247 21.8769 4.03469 21.6449 4.42628C21.413 4.81788 21.2444 5.26239 21.1389 5.75982C21.0335 6.25725 20.9808 6.77056 20.9808 7.29974V12.9197H18.9094V1.72745H20.8385V3.36262H20.8701C21.2707 2.70644 21.7556 2.23017 22.3249 1.93383C22.8941 1.6269 23.5899 1.47344 24.4121 1.47344C24.7389 1.47344 25.0604 1.51577 25.3767 1.60044C25.6929 1.68511 25.9881 1.81741 26.2622 1.99733C26.5468 2.16667 26.7998 2.38893 27.0212 2.6641C27.2425 2.92869 27.427 3.2462 27.5746 3.61663C27.7749 3.22504 28.0173 2.89165 28.302 2.61647C28.5971 2.3413 28.9028 2.11904 29.2191 1.9497C29.5459 1.78037 29.8674 1.65865 30.1836 1.58457C30.5104 1.51048 30.8003 1.47344 31.0533 1.47344C31.7596 1.47344 32.3552 1.58457 32.8401 1.80683C33.3356 2.0185 33.7361 2.31484 34.0419 2.69585C34.3476 3.07686 34.5637 3.52667 34.6902 4.04527C34.8272 4.56387 34.8957 5.1248 34.8957 5.72807V12.9197H32.8559Z" fill="#F9BE01"/>
<path d="M43.1182 13.1419C42.9179 13.6923 42.707 14.2426 42.4857 14.793C42.2748 15.3433 42.006 15.8408 41.6792 16.2853C41.363 16.7298 40.973 17.0896 40.5091 17.3648C40.0453 17.6506 39.476 17.7934 38.8014 17.7934C38.4746 17.7934 38.2111 17.7723 38.0108 17.7299C37.8105 17.6982 37.6102 17.6664 37.4099 17.6347L37.5364 15.936C37.6734 15.9889 37.8263 16.0366 37.995 16.0789C38.1636 16.1212 38.3376 16.1424 38.5168 16.1424C38.8225 16.1424 39.0966 16.0789 39.339 15.9519C39.5815 15.8249 39.7923 15.6608 39.9715 15.4597C40.1507 15.2692 40.3036 15.0576 40.4301 14.8247C40.5566 14.5919 40.6567 14.3696 40.7305 14.158C40.8148 13.9569 40.8728 13.7822 40.9044 13.6341C40.9466 13.4859 40.9677 13.3906 40.9677 13.3483C40.9677 13.2848 40.9519 13.2054 40.9202 13.1102C40.8886 13.0255 40.8517 12.9302 40.8096 12.8244C40.7674 12.708 40.72 12.5969 40.6672 12.491C40.6251 12.3746 40.5882 12.2688 40.5566 12.1735L36.7932 1.72745H39.0386L42.0429 10.9987H42.0746L45.158 1.72745H47.2294L43.1182 13.1419Z" fill="#F9BE01"/>
<path d="M36.3185 22.0812C36.3185 22.7582 36.3103 23.4353 36.3227 24.1083C36.3268 24.342 36.2357 24.4105 36.0162 24.3984C35.805 24.3863 35.5937 24.3903 35.3825 24.3944C35.2334 24.3984 35.1092 24.3823 35.047 24.2171C34.9849 24.0518 34.8814 24.1284 34.7737 24.1889C34.2642 24.475 33.7175 24.5596 33.146 24.4226C32.475 24.2614 32.0194 23.7617 32.0028 23.0847C31.9739 22.0409 31.9904 20.9972 31.9863 19.9535C31.9863 19.8285 32.036 19.76 32.1727 19.76C32.5247 19.76 32.8768 19.76 33.2288 19.756C33.4193 19.752 33.4317 19.8729 33.4317 20.0099C33.4317 20.8038 33.4317 21.6017 33.4317 22.3956C33.4317 22.5084 33.4317 22.6172 33.4359 22.73C33.4525 23.1693 33.6471 23.3788 34.0406 23.3788C34.5376 23.3788 34.8565 23.125 34.8606 22.7018C34.8689 21.8273 34.8731 20.9569 34.8565 20.0824C34.8524 19.8124 34.9476 19.7358 35.2044 19.752C35.4778 19.7681 35.7511 19.76 36.0203 19.752C36.244 19.7439 36.331 19.8245 36.3268 20.0502C36.3144 20.7272 36.3227 21.4002 36.3227 22.0772C36.3227 22.0812 36.3227 22.0812 36.3185 22.0812Z" fill="#00BCB4"/>
<path d="M23.359 22.0812C23.3715 21.6782 23.4129 21.2833 23.5661 20.9005C23.7939 20.3323 24.1998 19.9575 24.7921 19.7923C25.5086 19.5948 26.221 19.619 26.8961 19.9534C27.3475 20.1751 27.6085 20.5579 27.7451 21.0173C27.9605 21.7508 27.9564 22.4882 27.7037 23.2136C27.5173 23.7496 27.157 24.1405 26.6062 24.3138C25.7737 24.5797 24.9412 24.6039 24.1791 24.0962C23.6158 23.7254 23.4501 23.1371 23.3839 22.5205C23.3673 22.3754 23.3673 22.2303 23.359 22.0812ZM26.4032 22.1215C26.3949 21.7709 26.4115 21.4203 26.2251 21.0979C26.0677 20.8279 25.8109 20.7755 25.5252 20.7917C25.2642 20.8078 25.0654 20.9247 24.9826 21.1705C24.7714 21.7911 24.7631 22.4157 25.0033 23.0282C25.1151 23.3103 25.3802 23.3829 25.6743 23.3748C25.9518 23.3668 26.1671 23.2741 26.2748 23.0041C26.3949 22.722 26.4074 22.4238 26.4032 22.1215Z" fill="#00BCB4"/>
<path d="M38.8533 24.4709C38.1823 24.4709 37.5735 24.2815 37.0226 23.9148C36.857 23.806 36.799 23.6932 36.9398 23.5159C37.0641 23.3627 37.1676 23.1894 37.267 23.0202C37.383 22.8187 37.4948 22.7784 37.6977 22.9315C38.0084 23.1653 38.3646 23.3144 38.758 23.3506C38.8699 23.3627 38.9858 23.3627 39.0977 23.3466C39.2343 23.3265 39.3544 23.262 39.3876 23.1209C39.4249 22.9638 39.3006 22.8832 39.1888 22.8227C38.9154 22.6656 38.6006 22.6011 38.3066 22.4923C38.1492 22.4359 38.0001 22.3673 37.8551 22.2867C37.4037 22.045 37.1552 21.6823 37.151 21.1664C37.151 20.6264 37.3995 20.2033 37.8676 19.9655C38.7953 19.49 39.7148 19.5827 40.5887 20.1388C40.8413 20.3 40.8372 20.3564 40.6467 20.5821C40.5141 20.7393 40.3775 20.8964 40.2491 21.0617C40.1414 21.1987 40.0337 21.2067 39.8887 21.11C39.6278 20.9408 39.3462 20.832 39.0314 20.8118C38.8574 20.7997 38.6793 20.8158 38.6214 21.0093C38.5592 21.2229 38.7332 21.2994 38.8864 21.3599C39.2426 21.505 39.6154 21.6178 39.9591 21.783C40.655 22.1094 40.9035 22.5205 40.8289 23.1491C40.7626 23.7375 40.2739 24.2332 39.6154 24.3863C39.3627 24.4468 39.1101 24.479 38.8533 24.4709Z" fill="#00BCB4"/>
<path d="M45.2399 24.4629C44.5772 24.483 44.0056 24.3017 43.4838 23.9753C43.1773 23.7859 43.169 23.7093 43.3595 23.4232C43.4465 23.2942 43.55 23.1733 43.6163 23.0363C43.724 22.7985 43.8814 22.8106 44.0595 22.9275C44.2417 23.0484 44.4405 23.1371 44.6393 23.2297C44.892 23.3506 45.1612 23.3708 45.4345 23.3426C45.5961 23.3265 45.7079 23.2378 45.7327 23.0968C45.7576 22.9477 45.6499 22.8469 45.5049 22.7905C45.1363 22.6535 44.7594 22.5326 44.3991 22.3754C43.6867 22.0611 43.4051 21.5775 43.5376 20.8803C43.6577 20.2678 44.105 19.9172 44.6849 19.764C45.4635 19.5585 46.2215 19.6673 46.9048 20.1066C47.1948 20.292 47.1948 20.3403 46.9835 20.6103C46.8924 20.7272 46.7972 20.84 46.706 20.9529C46.4948 21.2108 46.4493 21.2188 46.1345 21.0496C45.8777 20.9085 45.6126 20.8078 45.3103 20.8239C45.1529 20.832 45.0245 20.8763 44.9872 21.0335C44.9499 21.1987 45.0618 21.2833 45.2026 21.3397C45.6002 21.5009 45.9978 21.6581 46.3954 21.8193C47.0042 22.0651 47.261 22.6253 47.1906 23.1491C47.1119 23.7174 46.6646 24.1969 46.0806 24.3541C45.7907 24.4306 45.5049 24.4911 45.2399 24.4629Z" fill="#F9BE01"/>
<path d="M28.6729 22.0812C28.6729 21.7548 28.6646 21.4324 28.677 21.106C28.6853 20.9085 28.6108 20.8118 28.4078 20.836C28.1427 20.8642 28.0309 20.7594 28.064 20.5015C28.0723 20.4249 28.064 20.3484 28.064 20.2718C28.0682 19.8527 28.0682 19.8608 28.4575 19.7117C28.8468 19.5585 29.0788 19.2643 29.1492 18.8694C29.1823 18.676 29.2776 18.6236 29.4474 18.6316C30.1142 18.6599 30.1349 18.4987 30.1142 19.2764C30.1142 19.2845 30.1142 19.2925 30.1142 19.3006C30.1059 19.76 30.1101 19.752 30.5864 19.76C31.4189 19.7802 31.2988 19.623 31.307 20.4652C31.3112 20.836 31.2988 20.84 30.926 20.832C30.1184 20.8199 30.1184 20.8199 30.1184 21.6057C30.1184 22.0167 30.1142 22.4278 30.1184 22.8388C30.1225 23.2781 30.3089 23.4191 30.7562 23.3224C30.781 23.3184 30.8059 23.3103 30.8307 23.3023C31.2532 23.1733 31.2532 23.1733 31.4064 23.5723C31.4271 23.6287 31.4479 23.6851 31.4644 23.7415C31.6177 24.2009 31.6052 24.2251 31.1331 24.3662C30.6982 24.4951 30.2467 24.5153 29.8036 24.4468C29.0912 24.3339 28.706 23.8503 28.6812 23.0524C28.6687 22.73 28.677 22.4036 28.6729 22.0812C28.677 22.0812 28.677 22.0812 28.6729 22.0812Z" fill="#00BCB4"/>
<path d="M19.3912 21.102C19.3912 20.4088 19.3912 19.7157 19.3912 19.0225C19.3912 18.6316 19.3954 18.6316 19.8054 18.6276C20.0705 18.6276 20.3314 18.6357 20.5965 18.6276C20.787 18.6236 20.8533 18.6961 20.8533 18.8855C20.845 20.1348 20.8491 21.3841 20.8491 22.6333C20.8491 23.0645 20.8947 23.1169 21.3503 23.1169C21.7893 23.1169 22.2283 23.125 22.6674 23.1169C22.8662 23.1129 22.9573 23.1693 22.949 23.3788C22.9366 23.6368 22.9407 23.8906 22.9531 24.1486C22.9614 24.3178 22.8993 24.4024 22.7129 24.4024C21.955 24.3984 21.2012 24.4145 20.4432 24.3903C19.8303 24.3702 19.3995 23.8906 19.3912 23.2579C19.3871 22.5406 19.3912 21.8193 19.3912 21.102Z" fill="#00BCB4"/>
<path d="M43.3264 19.7076C43.3264 20.0985 43.0572 20.3846 42.8832 20.703C42.7672 20.9126 42.6181 21.106 42.4897 21.3075C42.3531 21.5211 42.1791 21.5533 42.0424 21.3518C41.7691 20.9448 41.4957 20.5378 41.2721 20.1026C41.065 19.6996 41.181 19.2321 41.4874 18.9419C41.8478 18.6034 42.2412 18.5228 42.6927 18.7284C43.111 18.9178 43.3347 19.2482 43.3264 19.7076Z" fill="#F9BE01"/>
<path d="M6.91789 24.0455C6.91789 24.2333 6.8429 24.4135 6.70939 24.5464C6.57587 24.6793 6.39475 24.754 6.2058 24.7543C6.11216 24.7543 6.01944 24.736 5.93293 24.7003C5.84642 24.6647 5.76781 24.6125 5.70159 24.5467C5.63538 24.4809 5.58286 24.4027 5.54702 24.3167C5.51119 24.2308 5.49274 24.1386 5.49274 24.0455V24.0281C5.493 23.8403 5.56824 23.6603 5.70194 23.5275C5.83563 23.3948 6.01686 23.3203 6.2058 23.3203C6.39466 23.3203 6.57579 23.3949 6.70933 23.5276C6.84287 23.6603 6.91789 23.8404 6.91789 24.0281V24.0455Z" fill="#8FFFFD"/>
<path d="M9.24679 24.0194C9.24704 24.228 9.33059 24.4279 9.47906 24.5753C9.62753 24.7227 9.8288 24.8055 10.0386 24.8055H10.3159C10.5256 24.8055 10.7268 24.7227 10.8751 24.5753C11.0234 24.4278 11.1068 24.2279 11.1068 24.0194C11.1068 23.8109 11.0234 23.6109 10.8751 23.4635C10.7268 23.3161 10.5256 23.2332 10.3159 23.2332H10.0386C9.8288 23.2332 9.62753 23.316 9.47906 23.4634C9.33059 23.6108 9.24704 23.8108 9.24679 24.0194Z" fill="#8FFFFD"/>
<path d="M7.90723 22.7846H8.29635C8.42844 22.7846 8.55924 22.8104 8.68128 22.8607C8.80332 22.9109 8.9142 22.9846 9.00761 23.0774C9.10101 23.1703 9.1751 23.2805 9.22565 23.4018C9.2762 23.5231 9.30222 23.6531 9.30222 23.7844V24.1857C9.30209 24.3172 9.27589 24.4474 9.22511 24.5689C9.17434 24.6903 9.09998 24.8006 9.00629 24.8935C8.9126 24.9863 8.80142 25.0599 8.6791 25.11C8.55679 25.1601 8.42573 25.1858 8.29343 25.1856H7.90431C7.77221 25.1856 7.64141 25.1597 7.51938 25.1094C7.39734 25.0592 7.28645 24.9856 7.19305 24.8927C7.09964 24.7999 7.02555 24.6896 6.975 24.5683C6.92445 24.447 6.89843 24.317 6.89843 24.1857V23.7844C6.89843 23.6529 6.92455 23.5226 6.97528 23.4011C7.02601 23.2796 7.10037 23.1693 7.19408 23.0764C7.28779 22.9835 7.39902 22.9099 7.5214 22.8598C7.64377 22.8098 7.77489 22.7842 7.90723 22.7846Z" fill="white"/>
<path d="M12.9376 1.83616C12.9376 2.3003 10.9531 2.67742 8.50551 2.67742C6.05795 2.67742 4.07247 2.3003 4.07247 1.83616C4.07247 1.37201 6.05698 0.994892 8.50551 0.994892C10.954 0.994892 12.9376 1.37201 12.9376 1.83616Z" fill="#FFFDFA"/>
<path d="M8.11271 24.9718C7.848 24.9718 7.59413 24.8673 7.40695 24.6813C7.21977 24.4952 7.11462 24.2429 7.11462 23.9797C7.11462 23.7166 7.21977 23.4643 7.40695 23.2782C7.59413 23.0922 7.848 22.9876 8.11271 22.9876C8.16846 22.9881 8.22408 22.9929 8.27906 23.0021V22.4278H1.95586V3.12319H8.27906V2.17556H5.09606C5.0417 2.17823 4.98736 2.16988 4.93635 2.15104C4.88533 2.13219 4.8387 2.10324 4.79928 2.06594C4.75986 2.02864 4.72848 1.98377 4.70703 1.93404C4.68559 1.88432 4.67453 1.83079 4.67453 1.77669C4.67453 1.72259 4.68559 1.66906 4.70703 1.61933C4.72848 1.56961 4.75986 1.52474 4.79928 1.48744C4.8387 1.45014 4.88533 1.42119 4.93635 1.40234C4.98736 1.3835 5.0417 1.37515 5.09606 1.37781H8.27906V0.431152H2.47923C2.02657 0.432428 1.59282 0.611734 1.27274 0.929894C0.952666 1.24805 0.77228 1.67921 0.770996 2.12915V23.8714C0.772025 24.3214 0.95236 24.7526 1.27252 25.0706C1.59268 25.3887 2.02658 25.5677 2.47923 25.5685H8.28295V24.9554C8.22675 24.9655 8.16981 24.971 8.11271 24.9718ZM6.37043 24.3752C6.29154 24.3752 6.21443 24.352 6.14884 24.3084C6.08325 24.2648 6.03213 24.2029 6.00194 24.1305C5.97175 24.058 5.96385 23.9783 5.97924 23.9014C5.99463 23.8245 6.03262 23.7539 6.0884 23.6984C6.14418 23.643 6.21525 23.6052 6.29261 23.5899C6.36998 23.5746 6.45018 23.5825 6.52306 23.6125C6.59594 23.6425 6.65823 23.6933 6.70206 23.7585C6.74588 23.8237 6.76927 23.9004 6.76927 23.9788C6.76902 24.0838 6.72691 24.1845 6.65217 24.2588C6.57743 24.3331 6.47613 24.375 6.37043 24.3752Z" fill="#D71F26"/>
<path d="M13.7499 0.431152H8.27906V1.37781H11.1301C11.2331 1.38286 11.3302 1.42708 11.4014 1.50133C11.4725 1.57558 11.5121 1.67417 11.5121 1.77669C11.5121 1.8792 11.4725 1.97779 11.4014 2.05204C11.3302 2.1263 11.2331 2.17052 11.1301 2.17556L8.27906 2.17556V3.12319L14.2703 3.12319V22.4278L8.27906 22.4278V23.0021C8.51181 23.0408 8.72303 23.1602 8.87554 23.3392C9.02804 23.5182 9.11173 23.7452 9.11173 23.9797C9.11173 24.2143 9.02804 24.4413 8.87554 24.6203C8.72303 24.7993 8.51161 24.9187 8.27885 24.9573V25.5685H13.7499C14.2026 25.5674 14.6365 25.3882 14.9566 25.07C15.2768 24.7518 15.4571 24.3205 15.4581 23.8705V2.12915C15.4571 1.67913 15.2768 1.24783 14.9566 0.929613C14.6365 0.611398 14.2026 0.432174 13.7499 0.431152ZM9.85576 24.3752C9.77687 24.3752 9.69976 24.352 9.63417 24.3084C9.56858 24.2649 9.51746 24.2029 9.48727 24.1305C9.45708 24.058 9.44918 23.9783 9.46457 23.9014C9.47996 23.8245 9.51795 23.7539 9.57373 23.6984C9.62951 23.643 9.70058 23.6052 9.77795 23.5899C9.85532 23.5746 9.93551 23.5825 10.0084 23.6125C10.0813 23.6425 10.1436 23.6933 10.1874 23.7585C10.2312 23.8237 10.2546 23.9004 10.2546 23.9788C10.2543 24.0838 10.2122 24.1845 10.1375 24.2588C10.0628 24.3331 9.96146 24.375 9.85576 24.3752Z" fill="#EE323E"/>
<path d="M1.95566 3.16961V22.3282L14.174 3.16961H1.95566Z" fill="#C3E1DB"/>
<path d="M1.95566 22.3282V22.4742H14.2703V3.16961H14.174L1.95566 22.3282Z" fill="#9AD2D9"/>
</svg>
