<svg width="30" height="38" viewBox="0 0 30 38" fill="none" xmlns="http://www.w3.org/2000/svg">
<path d="M29.1931 6.25269V35.6698C29.1901 36.1506 28.9372 36.611 28.4897 36.9502C28.0421 37.2894 27.4364 37.4798 26.8049 37.4798H3.19336C2.55997 37.4798 1.95253 37.2882 1.50466 36.9472C1.05678 36.6061 0.805176 36.1436 0.805176 35.6613V2.33855C0.805176 1.85626 1.05678 1.39373 1.50466 1.0527C1.95253 0.711671 2.55997 0.520082 3.19336 0.520082H23.344C23.4457 0.518945 23.5467 0.53328 23.6411 0.562247C23.7354 0.591213 23.8212 0.634229 23.8934 0.688771L28.987 5.84278C29.1233 5.9537 29.1973 6.10082 29.1931 6.25269Z" fill="#D71F26"/>
<path d="M28.9798 5.85144L23.8885 0.705868C23.8162 0.651326 23.7304 0.60831 23.6361 0.579344C23.5417 0.550377 23.4408 0.536042 23.339 0.537179H14.9964V37.48H26.8066C27.4399 37.48 28.0474 37.2884 28.4953 36.9474C28.9431 36.6064 29.1947 36.1438 29.1947 35.6616V6.24449C29.1909 6.09751 29.1141 5.95709 28.9798 5.85144Z" fill="#EE323E"/>
<path d="M5.29186 12.7965V30.5934C5.29186 32.1407 6.73304 33.395 8.51081 33.395H21.4641C23.2419 33.395 24.6831 32.1407 24.6831 30.5934V12.7965C24.6831 11.2492 23.2419 9.99492 21.4641 9.99492H8.51081C6.73304 9.99492 5.29186 11.2492 5.29186 12.7965Z" fill="#FFE078"/>
<path d="M5.18108 13.2458V30.148C5.18108 31.9971 6.55905 33.5011 8.25382 33.5011H21.7388C23.4336 33.5011 24.8116 31.9971 24.8116 30.148V13.2458C24.8116 11.3967 23.4336 9.89272 21.7388 9.89272H8.25382C6.5524 9.89079 5.18108 11.3948 5.18108 13.2458ZM8.25382 33.2986C6.68976 33.2986 5.41813 31.8891 5.41813 30.1538V22.3467H6.35745C6.35745 22.3775 6.37296 22.4065 6.37739 22.4392C6.39954 22.5549 6.42613 22.6687 6.45936 22.7805C6.47486 22.8364 6.49259 22.8924 6.51031 22.9483C6.54576 23.0524 6.58342 23.1527 6.62551 23.2529C6.64323 23.2953 6.65875 23.3378 6.67868 23.3802C6.7385 23.5113 6.80718 23.6386 6.88029 23.7658C6.9113 23.814 6.94231 23.8622 6.97554 23.9104C7.0265 23.9895 7.07966 24.0666 7.13726 24.1418C7.16606 24.1804 7.19044 24.2228 7.22367 24.2633C7.29013 24.3462 7.36102 24.4272 7.43413 24.5024L7.46514 24.5371C7.53825 24.6103 7.61136 24.6817 7.70219 24.7627L7.72656 24.7839C7.80631 24.8533 7.88606 24.9169 7.97025 24.9767L8.00348 25.0037C8.1904 25.1394 8.39054 25.2607 8.60163 25.3662L8.68582 25.4047L8.91621 25.505L9.04028 25.5494L9.11339 25.5764V33.289L8.25382 33.2986ZM9.36151 33.2986V25.6515C9.39695 25.6612 9.43019 25.6631 9.46563 25.6728C9.58361 25.7024 9.70344 25.7263 9.82452 25.7441L9.97517 25.7653C10.1329 25.7853 10.2921 25.7956 10.4515 25.7962C11.302 25.7918 12.1258 25.5369 12.7887 25.0731C12.8728 25.0196 12.96 24.9701 13.0501 24.9246V33.2986H9.36151ZM13.2938 33.2986V24.8147C13.4213 24.7571 13.5531 24.7069 13.6881 24.6643L13.8056 24.6335C13.923 24.6026 14.0426 24.5756 14.1645 24.5544L14.2929 24.5351C14.4534 24.5129 14.6156 24.5013 14.7781 24.5004H15.3718C15.5389 24.5009 15.7056 24.5132 15.8703 24.5371C15.9323 24.5371 15.9899 24.5583 16.0497 24.5699C16.1508 24.5867 16.2507 24.6086 16.3488 24.6354C16.4175 24.6528 16.484 24.6759 16.5504 24.699C16.6169 24.7222 16.7232 24.7607 16.8074 24.7974C16.8916 24.834 16.9359 24.8552 16.9979 24.8861L17.0976 24.942V33.2986H13.2938ZM17.3413 33.2986V25.0654L17.3568 25.075C18.0197 25.5388 18.8435 25.7937 19.6941 25.7981C19.8423 25.7969 19.9903 25.7872 20.1371 25.7692H20.1992C20.3395 25.7512 20.4786 25.7261 20.6157 25.694H20.64V33.2986H17.3413ZM24.5834 22.3544V30.1538C24.5834 31.8891 23.3118 33.2986 21.7499 33.2986H20.8904V25.6226C20.9302 25.6111 20.9657 25.5937 21.0056 25.5802C21.0897 25.5513 21.1739 25.5204 21.2581 25.4857C21.3423 25.451 21.391 25.4337 21.4531 25.4028C21.5683 25.3488 21.6746 25.2891 21.792 25.2254C21.8563 25.1869 21.9183 25.1444 21.9803 25.104C22.0424 25.0635 22.1066 25.0191 22.1686 24.9728L22.3392 24.8417C22.4411 24.7569 22.5408 24.6682 22.6339 24.5737C22.6649 24.5429 22.6915 24.512 22.7203 24.4812C22.8022 24.3944 22.8798 24.3038 22.9551 24.2093L23.0304 24.111C23.2243 23.8477 23.3855 23.5671 23.5112 23.2741L23.5289 23.2336C23.6485 22.9462 23.7346 22.6491 23.7859 22.3467L24.5834 22.3544ZM21.7499 10.1067C23.3118 10.1067 24.5834 11.5162 24.5834 13.2516V21.0529H23.7903C23.7608 20.8579 23.7172 20.6647 23.6596 20.4744C23.2608 19.1633 22.2284 18.1221 20.8837 17.723V10.1067H21.7499ZM20.6533 10.1067V17.8734L20.7353 17.8965C22.0645 18.2628 23.0858 19.2906 23.4558 20.5959C23.5103 20.7861 23.5495 20.9794 23.5732 21.1744L23.5843 21.2669H24.5834V22.1539H23.5688V22.1732L23.5444 22.3178L23.5311 22.391V22.4238C23.5156 22.499 23.5001 22.5761 23.4823 22.6513C23.4823 22.6764 23.4691 22.7015 23.4602 22.7285C23.374 23.0436 23.2461 23.349 23.0792 23.6386L23.0437 23.6945C22.9772 23.8063 22.9041 23.9123 22.8222 24.0165L22.7557 24.1052C22.6704 24.2139 22.5787 24.3188 22.481 24.4195C22.4433 24.458 22.4012 24.4947 22.3614 24.5313C22.3215 24.5679 22.2329 24.6489 22.1664 24.7029C22.1 24.7569 22.0623 24.7897 22.0069 24.8302C21.9515 24.8706 21.8563 24.9381 21.7854 24.9883C21.7145 25.0384 21.617 25.0905 21.5306 25.1367C21.4442 25.183 21.3955 25.2081 21.3246 25.2409C21.2537 25.2736 21.2005 25.2968 21.1363 25.3218C21.0267 25.3667 20.9143 25.4059 20.7995 25.4394L20.7397 25.4568C20.5792 25.4999 20.4157 25.5341 20.2501 25.559H20.1859C20.0254 25.5811 19.8632 25.5927 19.7007 25.5937C18.905 25.5894 18.1343 25.3509 17.5141 24.9169L17.4543 24.8822L17.3457 24.8147L17.2926 24.7839L17.2593 24.7685L17.1087 24.6798V24.6894L16.9425 24.6123C16.8539 24.5737 16.7631 24.5409 16.6701 24.5082C16.577 24.4754 16.5238 24.4561 16.4485 24.4349C16.3437 24.4068 16.2372 24.3836 16.1295 24.3655C16.0631 24.3497 15.9958 24.3368 15.9279 24.3269C15.7485 24.3014 15.567 24.2885 15.3851 24.2883H14.7848C14.6133 24.2889 14.4422 24.3011 14.273 24.325C14.211 24.325 14.1534 24.3443 14.0936 24.3539C13.9828 24.3732 13.872 24.3963 13.7679 24.4233C13.7059 24.4407 13.6438 24.4561 13.584 24.4754C13.4865 24.5062 13.3935 24.5429 13.3005 24.5814V24.5679L13.1343 24.647H13.1232L13.0745 24.6701C12.9309 24.7399 12.7932 24.8185 12.6624 24.9054C12.0415 25.3394 11.2701 25.578 10.4736 25.5821C10.2999 25.5803 10.1266 25.5668 9.95523 25.5416L9.83117 25.5262C9.67726 25.4988 9.52555 25.4628 9.37702 25.4182C8.53477 25.154 7.81919 24.6507 7.34551 23.9895C7.29456 23.9201 7.24361 23.8507 7.19708 23.7793C7.15056 23.708 7.12619 23.6636 7.09296 23.6058C7.03093 23.4997 6.97554 23.3937 6.92459 23.2818C6.90022 23.2298 6.88028 23.1758 6.85813 23.1218C6.81825 23.0215 6.78059 22.929 6.74957 22.8191C6.73185 22.7651 6.71634 22.7092 6.70083 22.6533C6.67277 22.5401 6.64841 22.4245 6.62773 22.3062C6.62773 22.2773 6.61665 22.2503 6.61222 22.2214L6.59893 22.1307H5.40262V21.2438H6.54576L6.55683 21.1512C6.55597 21.1442 6.55597 21.1371 6.55683 21.13C6.57677 20.9835 6.60779 20.8369 6.64324 20.6943L6.67647 20.5709C6.71634 20.4378 6.75843 20.3067 6.8116 20.1852C6.8116 20.1698 6.82268 20.1524 6.82933 20.1351C6.88983 19.9958 6.9586 19.8594 7.03536 19.7263C7.0553 19.6897 7.07745 19.655 7.09961 19.6203C7.16693 19.5059 7.24087 19.3946 7.32114 19.2867C7.73474 18.7296 8.32172 18.2862 9.01369 18.0083L9.05136 17.9948C9.13333 17.964 9.21751 17.937 9.29948 17.9119C9.45588 17.8652 9.61576 17.8278 9.778 17.8001L9.89099 17.7847C10.0646 17.7596 10.2401 17.7461 10.416 17.7442C11.2097 17.7482 11.9786 17.9854 12.5982 18.4171C12.7307 18.5052 12.8707 18.5845 13.0169 18.6543L13.0634 18.6774H13.0789L13.2539 18.7603V18.7468C13.3492 18.7854 13.4445 18.8239 13.5419 18.8548L13.6859 18.8934C13.8082 18.9262 13.9325 18.9533 14.0581 18.9743C14.1069 18.9743 14.1534 18.9917 14.2021 18.9975C14.3744 19.0204 14.5484 19.0327 14.7227 19.0341H15.3718C16.0446 19.0372 16.7035 18.8675 17.266 18.5463L17.3192 18.5154V10.099L20.6533 10.1067ZM17.1087 10.1067V18.4229C16.5872 18.7028 15.9844 18.8467 15.3718 18.8374H14.7427C14.5809 18.8366 14.4195 18.825 14.2597 18.8027L14.1357 18.7835C14.0106 18.7637 13.887 18.7373 13.7657 18.7044L13.6638 18.6774C13.5304 18.635 13.4002 18.5855 13.2739 18.5289V10.099L17.1087 10.1067ZM13.0612 10.1067V18.4132C12.9684 18.3672 12.8789 18.3163 12.7931 18.2609C12.1308 17.8011 11.3097 17.5491 10.4626 17.5456C10.3017 17.547 10.1412 17.5573 9.98182 17.5764L9.84003 17.5957C9.7093 17.6161 9.57989 17.6425 9.45234 17.6748L9.37259 17.6902V10.099L13.0612 10.1067ZM9.1289 17.7654L9.04693 17.7943L8.99597 17.8136L8.93837 17.8348C8.87412 17.8599 8.81209 17.8888 8.73899 17.9216L8.69468 17.9408L8.62157 17.9756C8.51745 18.0276 8.41554 18.0816 8.31807 18.1414L8.26046 18.1799C8.18071 18.2301 8.10095 18.2821 8.02342 18.338L7.95253 18.394C7.88164 18.448 7.81295 18.5039 7.74649 18.5617L7.68225 18.6215C7.62687 18.6716 7.5737 18.7237 7.52053 18.7777L7.50724 18.7892L7.48508 18.8104L7.43413 18.8644C7.39204 18.9107 7.34772 18.9647 7.30342 19.0168L7.25911 19.0669L7.23031 19.1016L7.21037 19.1267C7.19265 19.1479 7.17936 19.1749 7.16164 19.1961C7.08853 19.2925 7.02206 19.3889 6.95782 19.4949L6.88914 19.6029C6.81382 19.734 6.74293 19.8709 6.6809 20.0098C6.6676 20.0387 6.65874 20.0695 6.64545 20.0985C6.59671 20.2161 6.55462 20.3376 6.51474 20.461C6.50366 20.5014 6.49037 20.5419 6.47929 20.5844C6.43598 20.7369 6.40197 20.8914 6.37739 21.0471H5.40262V13.2458C5.40262 11.5104 6.67425 10.101 8.23831 10.101H9.09788L9.1289 17.7654Z" fill="#856628"/>
</svg>
