<svg width="40%" height="90%" viewBox="0 0 34 36" fill="none" xmlns="http://www.w3.org/2000/svg">
<path d="M20.9836 13.6825V34.6947C20.9815 35.0381 20.8009 35.367 20.4812 35.6092C20.1615 35.8515 19.7288 35.9876 19.2778 35.9876H2.41239C1.95997 35.9876 1.52608 35.8507 1.20617 35.6071C0.886264 35.3635 0.706543 35.0331 0.706543 34.6887V10.8867C0.706543 10.5422 0.886264 10.2118 1.20617 9.9682C1.52608 9.72461 1.95997 9.58776 2.41239 9.58776H16.8057C16.8784 9.58695 16.9505 9.59719 17.0179 9.61788C17.0853 9.63857 17.1466 9.66929 17.1982 9.70825L20.8364 13.3897C20.9338 13.4689 20.9866 13.574 20.9836 13.6825Z" fill="#D71F26"/>
<path d="M20.8313 13.3959L17.1946 9.72047C17.143 9.68151 17.0817 9.65078 17.0143 9.63009C16.9469 9.6094 16.8748 9.59916 16.8022 9.59997H10.8431V35.9877H19.279C19.7314 35.9877 20.1653 35.8509 20.4852 35.6073C20.8051 35.3637 20.9848 35.0333 20.9848 34.6888V13.6766C20.982 13.5716 20.9272 13.4713 20.8313 13.3959Z" fill="#EE323E"/>
<path d="M3.91132 18.3567V31.0687C3.91132 32.1739 4.94073 33.0699 6.21057 33.0699H15.463C16.7328 33.0699 17.7622 32.1739 17.7622 31.0687V18.3567C17.7622 17.2515 16.7328 16.3555 15.463 16.3555H6.21057C4.94073 16.3555 3.91132 17.2515 3.91132 18.3567Z" fill="#FFE078"/>
<path d="M3.83219 18.6776V30.7506C3.83219 32.0714 4.81645 33.1456 6.027 33.1456H15.6592C16.8697 33.1456 17.854 32.0714 17.854 30.7506V18.6776C17.854 17.3568 16.8697 16.2825 15.6592 16.2825H6.027C4.81171 16.2811 3.83219 17.3554 3.83219 18.6776ZM6.027 33.001C4.90982 33.001 4.00151 31.9942 4.00151 30.7547V25.1782H4.67245C4.67245 25.2002 4.68353 25.2209 4.6867 25.2443C4.70252 25.3269 4.72151 25.4082 4.74524 25.4881C4.75632 25.528 4.76898 25.568 4.78164 25.6079C4.80696 25.6823 4.83386 25.7539 4.86393 25.8255C4.87659 25.8558 4.88767 25.8861 4.90191 25.9164C4.94463 26.0101 4.99369 26.101 5.04591 26.1919C5.06806 26.2263 5.09021 26.2607 5.11395 26.2951C5.15035 26.3516 5.18832 26.4067 5.22946 26.4604C5.25003 26.488 5.26744 26.5183 5.29118 26.5472C5.33865 26.6064 5.38929 26.6643 5.44151 26.718L5.46366 26.7428C5.51588 26.7951 5.5681 26.8461 5.63298 26.9039L5.65039 26.919C5.70735 26.9686 5.76432 27.0141 5.82445 27.0568L5.84819 27.0761C5.9817 27.173 6.12466 27.2596 6.27544 27.335L6.33558 27.3625L6.50014 27.4341L6.58876 27.4658L6.64098 27.4851V32.9941L6.027 33.001ZM6.81821 33.001V27.5388C6.84353 27.5457 6.86727 27.5471 6.89258 27.554C6.97686 27.5752 7.06244 27.5922 7.14893 27.6049L7.25654 27.6201C7.36921 27.6344 7.4829 27.6417 7.59676 27.6421C8.20429 27.639 8.7927 27.4569 9.26621 27.1256C9.32625 27.0874 9.38858 27.052 9.45293 27.0196V33.001H6.81821ZM9.627 33.001V26.9411C9.71808 26.8999 9.81217 26.864 9.90867 26.8337L9.99254 26.8116C10.0764 26.7896 10.1619 26.7703 10.2489 26.7552L10.3407 26.7414C10.4553 26.7255 10.5711 26.7172 10.6872 26.7166H11.1113C11.2306 26.7169 11.3497 26.7257 11.4673 26.7428C11.5117 26.7428 11.5528 26.7579 11.5955 26.7662C11.6677 26.7782 11.739 26.7938 11.8092 26.813C11.8582 26.8254 11.9057 26.8419 11.9532 26.8584C12.0006 26.875 12.0766 26.9025 12.1367 26.9287C12.1968 26.9549 12.2285 26.97 12.2728 26.992L12.344 27.032V33.001H9.627ZM12.5181 33.001V27.1201L12.5291 27.127C13.0027 27.4583 13.5911 27.6403 14.1986 27.6435C14.3045 27.6426 14.4102 27.6357 14.5151 27.6228H14.5594C14.6597 27.61 14.759 27.592 14.8569 27.5691H14.8743V33.001H12.5181ZM17.691 25.1837V30.7547C17.691 31.9942 16.7827 33.001 15.6671 33.001H15.0531V27.5182C15.0816 27.5099 15.1069 27.4975 15.1354 27.4879C15.1955 27.4672 15.2557 27.4452 15.3158 27.4204C15.3759 27.3956 15.4107 27.3832 15.455 27.3611C15.5373 27.3226 15.6133 27.2799 15.6971 27.2344C15.743 27.2069 15.7873 27.1766 15.8316 27.1477C15.876 27.1187 15.9218 27.0871 15.9662 27.054L16.088 26.9604C16.1608 26.8998 16.232 26.8364 16.2985 26.7689C16.3206 26.7469 16.3396 26.7249 16.3602 26.7028C16.4187 26.6408 16.4741 26.5761 16.5279 26.5086L16.5817 26.4384C16.7202 26.2503 16.8353 26.0499 16.9251 25.8407L16.9378 25.8117C17.0232 25.6064 17.0847 25.3942 17.1213 25.1782L17.691 25.1837ZM15.6671 16.4354C16.7827 16.4354 17.691 17.4422 17.691 18.6817V24.2541H17.1245C17.1034 24.1148 17.0723 23.9767 17.0311 23.8409C16.7463 22.9043 16.0089 22.1606 15.0484 21.8755V16.4354H15.6671ZM14.8838 16.4354V21.983L14.9423 21.9995C15.8918 22.2612 16.6213 22.9952 16.8855 23.9276C16.9245 24.0635 16.9525 24.2016 16.9694 24.3408L16.9773 24.4069H17.691V25.0405H16.9662V25.0542L16.9488 25.1575L16.9393 25.2099V25.2333C16.9283 25.287 16.9172 25.3421 16.9045 25.3958C16.9045 25.4137 16.895 25.4316 16.8887 25.4509C16.8271 25.676 16.7358 25.8941 16.6165 26.101L16.5912 26.1409C16.5437 26.2208 16.4915 26.2965 16.433 26.3709L16.3855 26.4343C16.3245 26.512 16.259 26.5869 16.1893 26.6587C16.1624 26.6863 16.1323 26.7125 16.1038 26.7386C16.0753 26.7648 16.012 26.8226 15.9646 26.8612C15.9171 26.8998 15.8902 26.9232 15.8506 26.9521C15.8111 26.981 15.743 27.0292 15.6924 27.065C15.6418 27.1008 15.5721 27.138 15.5104 27.1711C15.4487 27.2041 15.4139 27.222 15.3633 27.2455C15.3126 27.2689 15.2746 27.2854 15.2287 27.3033C15.1505 27.3353 15.0702 27.3634 14.9882 27.3873L14.9455 27.3997C14.8308 27.4305 14.714 27.4549 14.5958 27.4727H14.5499C14.4353 27.4885 14.3194 27.4968 14.2033 27.4975C13.635 27.4944 13.0845 27.324 12.6415 27.0141L12.5988 26.9893L12.5212 26.9411L12.4833 26.919L12.4595 26.908L12.3519 26.8447V26.8516L12.2332 26.7965C12.1699 26.7689 12.1051 26.7455 12.0386 26.7221C11.9721 26.6987 11.9342 26.6849 11.8804 26.6698C11.8055 26.6497 11.7294 26.6331 11.6525 26.6202C11.6051 26.6089 11.557 26.5997 11.5085 26.5926C11.3803 26.5744 11.2507 26.5652 11.1208 26.5651H10.692C10.5695 26.5655 10.4473 26.5742 10.3264 26.5913C10.2821 26.5913 10.241 26.605 10.1983 26.6119C10.1191 26.6257 10.04 26.6422 9.96564 26.6615C9.92133 26.6739 9.87702 26.6849 9.83429 26.6987C9.76467 26.7207 9.69821 26.7469 9.63175 26.7744V26.7648L9.51306 26.8213H9.50515L9.47034 26.8378C9.36778 26.8877 9.26942 26.9438 9.17601 27.0058C8.73247 27.3159 8.18147 27.4863 7.61259 27.4892C7.48848 27.4879 7.36468 27.4783 7.2423 27.4603L7.15368 27.4493C7.04374 27.4297 6.93538 27.404 6.82929 27.3722C6.22768 27.1834 5.71656 26.8239 5.37821 26.3516C5.34182 26.302 5.30542 26.2525 5.27219 26.2015C5.23896 26.1505 5.22155 26.1189 5.19782 26.0775C5.15351 26.0018 5.11395 25.926 5.07755 25.8462C5.06015 25.809 5.04591 25.7704 5.03008 25.7319C5.0016 25.6602 4.97469 25.5941 4.95254 25.5156C4.93988 25.4771 4.9288 25.4371 4.91773 25.3972C4.89768 25.3164 4.88028 25.2337 4.86551 25.1493C4.86551 25.1286 4.8576 25.1093 4.85443 25.0887L4.84494 25.0239H3.99043V24.3904H4.80696L4.81487 24.3243C4.81426 24.3193 4.81426 24.3142 4.81487 24.3091C4.82911 24.2045 4.85127 24.0998 4.87659 23.9979L4.90032 23.9097C4.92881 23.8147 4.95887 23.7211 4.99685 23.6343C4.99685 23.6233 5.00476 23.6109 5.00951 23.5985C5.05272 23.499 5.10184 23.4015 5.15667 23.3065C5.17092 23.2803 5.18674 23.2555 5.20257 23.2308C5.25065 23.1491 5.30347 23.0695 5.36081 22.9925C5.65623 22.5946 6.0755 22.2779 6.56977 22.0794L6.59667 22.0697C6.65522 22.0477 6.71535 22.0284 6.7739 22.0105C6.88562 21.9771 6.99982 21.9505 7.11571 21.9306L7.19641 21.9196C7.3204 21.9017 7.44577 21.8921 7.57144 21.8907C8.13836 21.8936 8.68756 22.063 9.13012 22.3714C9.22477 22.4343 9.32474 22.4909 9.4292 22.5408L9.46243 22.5573H9.4735L9.59852 22.6165V22.6069C9.66656 22.6344 9.7346 22.662 9.80423 22.684L9.90709 22.7115C9.99443 22.735 10.0832 22.7543 10.1729 22.7694C10.2077 22.7694 10.241 22.7818 10.2758 22.7859C10.3989 22.8023 10.5231 22.8111 10.6477 22.8121H11.1113C11.5919 22.8143 12.0625 22.6931 12.4643 22.4636L12.5022 22.4416V16.4299L14.8838 16.4354ZM12.3519 16.4354V22.3755C11.9794 22.5754 11.5489 22.6782 11.1113 22.6716H10.6619C10.5464 22.671 10.431 22.6627 10.3169 22.6468L10.2283 22.633C10.139 22.6189 10.0507 22.6001 9.96405 22.5766L9.89126 22.5573C9.79598 22.527 9.70296 22.4916 9.61276 22.4512V16.4299L12.3519 16.4354ZM9.46085 16.4354V22.3686C9.39457 22.3357 9.33062 22.2994 9.26937 22.2598C8.7963 21.9314 8.20981 21.7513 7.60467 21.7488C7.48979 21.7499 7.3751 21.7572 7.26129 21.7709L7.16001 21.7846C7.06663 21.7992 6.9742 21.8181 6.88309 21.8411L6.82613 21.8521V16.4299L9.46085 16.4354ZM6.65206 21.9058L6.59351 21.9265L6.55711 21.9403L6.51597 21.9554C6.47008 21.9733 6.42577 21.994 6.37355 22.0174L6.3419 22.0312L6.28968 22.056C6.21531 22.0931 6.14252 22.1317 6.07289 22.1744L6.03175 22.2019C5.97478 22.2378 5.91781 22.2749 5.86243 22.3149L5.8118 22.3548C5.76116 22.3934 5.7121 22.4333 5.66463 22.4746L5.61874 22.5173C5.57918 22.5531 5.5412 22.5903 5.50322 22.6289L5.49373 22.6372L5.4779 22.6523L5.44151 22.6909C5.41145 22.7239 5.37979 22.7625 5.34814 22.7997L5.3165 22.8355L5.29593 22.8603L5.28169 22.8782C5.26903 22.8933 5.25953 22.9126 5.24687 22.9278C5.19465 22.9966 5.14718 23.0655 5.10129 23.1412L5.05223 23.2184C4.99843 23.312 4.94779 23.4098 4.90349 23.509C4.89399 23.5296 4.88766 23.5517 4.87817 23.5723C4.84335 23.6563 4.81329 23.7431 4.7848 23.8312C4.77689 23.8602 4.7674 23.8891 4.75949 23.9194C4.72855 24.0284 4.70425 24.1387 4.6867 24.2499H3.99043V18.6776C3.99043 17.438 4.89874 16.4312 6.01592 16.4312H6.6299L6.65206 21.9058Z" fill="#856628"/>
<path d="M33.2925 2.02237V12.3374C33.2915 12.506 33.2017 12.6675 33.0428 12.7864C32.8839 12.9054 32.6688 12.9721 32.4446 12.9721H24.0611C23.8362 12.9721 23.6205 12.9049 23.4615 12.7854C23.3024 12.6658 23.2131 12.5036 23.2131 12.3345V0.649872C23.2131 0.480759 23.3024 0.318572 23.4615 0.198991C23.6205 0.0794095 23.8362 0.012229 24.0611 0.012229H31.2158C31.2519 0.0118304 31.2877 0.0168569 31.3212 0.027014C31.3547 0.037171 31.3852 0.0522543 31.4108 0.0713796L33.2194 1.87863C33.2678 1.91753 33.294 1.96911 33.2925 2.02237Z" fill="#27AE60"/>
<path d="M33.2168 1.88167L31.4091 0.0773747C31.3834 0.0582494 31.3529 0.0431661 31.3195 0.033009C31.286 0.0228519 31.2501 0.0178254 31.214 0.0182241H28.2518V12.9722L32.4446 12.9721C32.6695 12.9721 32.8857 12.905 33.0448 12.7854C33.2038 12.6659 33.2931 12.5037 33.2931 12.3346V2.01949C33.2917 1.96795 33.2645 1.91871 33.2168 1.88167Z" fill="#6FCF97"/>
<path d="M24.8061 4.31696V10.5574C24.8061 11.1 25.3179 11.5398 25.9491 11.5398H30.5483C31.1795 11.5398 31.6912 11.1 31.6912 10.5574V4.31696C31.6912 3.77441 31.1795 3.33458 30.5483 3.33458H25.9491C25.3179 3.33458 24.8061 3.77441 24.8061 4.31696Z" fill="#FFE078"/>
<path d="M24.7668 4.47449V10.4012C24.7668 11.0496 25.2561 11.577 25.8578 11.577H30.6458C31.2476 11.577 31.7368 11.0496 31.7368 10.4012V4.47449C31.7368 3.8261 31.2476 3.29874 30.6458 3.29874H25.8578C25.2537 3.29806 24.7668 3.82543 24.7668 4.47449ZM25.8578 11.506C25.3025 11.506 24.851 11.0118 24.851 10.4033V7.66571H25.1845C25.1845 7.67653 25.19 7.68667 25.1916 7.69817C25.1994 7.73873 25.2089 7.77862 25.2207 7.81784C25.2262 7.83744 25.2325 7.85705 25.2388 7.87666C25.2514 7.91317 25.2647 7.94832 25.2797 7.98348C25.286 7.99836 25.2915 8.01323 25.2986 8.02811C25.3198 8.07408 25.3442 8.1187 25.3701 8.16333C25.3811 8.18023 25.3922 8.19713 25.404 8.21404C25.422 8.24176 25.4409 8.2688 25.4614 8.29517C25.4716 8.30869 25.4803 8.32357 25.4921 8.33776C25.5157 8.36684 25.5408 8.39523 25.5668 8.4216L25.5778 8.43377C25.6038 8.45946 25.6297 8.48448 25.662 8.51288L25.6706 8.52031C25.6989 8.54465 25.7272 8.56696 25.7571 8.58792L25.7689 8.59739C25.8353 8.64498 25.9064 8.6875 25.9813 8.72449L26.0112 8.73802L26.093 8.77318L26.1371 8.78873L26.163 8.79819V11.5026L25.8578 11.506ZM26.2511 11.506V8.82456C26.2637 8.82794 26.2755 8.82862 26.2881 8.832C26.33 8.8424 26.3725 8.85076 26.4155 8.85701L26.469 8.86445C26.525 8.87146 26.5815 8.87508 26.6381 8.87527C26.9401 8.87372 27.2326 8.78436 27.468 8.62173C27.4978 8.60297 27.5288 8.5856 27.5608 8.56967V11.506H26.2511ZM27.6473 11.506V8.53113C27.6926 8.51093 27.7394 8.49331 27.7873 8.47839L27.829 8.46758C27.8707 8.45676 27.9132 8.44729 27.9565 8.43985L28.0021 8.43309C28.0591 8.42529 28.1166 8.42123 28.1743 8.42092H28.3851C28.4444 8.42109 28.5036 8.42538 28.5621 8.43377C28.5842 8.43377 28.6046 8.44121 28.6258 8.44526C28.6617 8.45117 28.6972 8.45885 28.732 8.46825C28.7564 8.47434 28.78 8.48245 28.8036 8.49056C28.8272 8.49868 28.865 8.5122 28.8949 8.52504C28.9247 8.53789 28.9405 8.54533 28.9625 8.55614L28.9979 8.57575V11.506H27.6473ZM29.0844 11.506V8.61902L29.0899 8.6224C29.3253 8.78504 29.6178 8.8744 29.9198 8.87594C29.9724 8.87552 30.025 8.87214 30.0771 8.8658H30.0991C30.149 8.85949 30.1984 8.85069 30.247 8.83943H30.2557V11.506H29.0844ZM31.6558 7.66842V10.4033C31.6558 11.0118 31.2043 11.506 30.6497 11.506H30.3446V8.81442C30.3587 8.81036 30.3713 8.80428 30.3855 8.79954C30.4153 8.7894 30.4452 8.77859 30.4751 8.76642C30.505 8.75425 30.5223 8.74816 30.5443 8.73734C30.5852 8.71841 30.623 8.69745 30.6647 8.67514C30.6875 8.66162 30.7095 8.64674 30.7316 8.63255C30.7536 8.61835 30.7764 8.6028 30.7984 8.58657L30.859 8.5406C30.8952 8.51085 30.9306 8.47975 30.9636 8.44662C30.9746 8.4358 30.9841 8.42498 30.9943 8.41416C31.0234 8.38374 31.0509 8.35196 31.0777 8.31883L31.1044 8.28435C31.1733 8.19203 31.2305 8.09366 31.2751 7.99092L31.2814 7.97672C31.3238 7.87594 31.3544 7.77175 31.3726 7.66571L31.6558 7.66842ZM30.6497 3.37379C31.2043 3.37379 31.6558 3.86802 31.6558 4.47652V7.21204H31.3742C31.3637 7.14366 31.3482 7.07591 31.3278 7.00921C31.1862 6.54946 30.8197 6.18436 30.3422 6.04441V3.37379H30.6497ZM30.2604 3.37379V6.09714L30.2895 6.10526C30.7614 6.23372 31.1241 6.59408 31.2554 7.05181C31.2748 7.11851 31.2887 7.18628 31.2971 7.25464L31.301 7.28709H31.6558V7.5981H31.2955V7.60486L31.2869 7.65557L31.2822 7.68126V7.69276C31.2767 7.71913 31.2712 7.74617 31.2649 7.77254C31.2649 7.78133 31.2601 7.79012 31.257 7.79958C31.2264 7.91009 31.181 8.01718 31.1217 8.1187L31.1091 8.13831C31.0855 8.17753 31.0596 8.21471 31.0305 8.25122L31.0069 8.28232C30.9766 8.32047 30.944 8.35725 30.9093 8.39253C30.896 8.40605 30.881 8.4189 30.8668 8.43174C30.8527 8.44459 30.8212 8.47299 30.7976 8.49192C30.774 8.51085 30.7607 8.52234 30.741 8.53654C30.7213 8.55074 30.6875 8.5744 30.6623 8.59198C30.6372 8.60956 30.6026 8.62781 30.5719 8.64404C30.5412 8.66027 30.5239 8.66905 30.4987 8.68055C30.4736 8.69204 30.4547 8.70016 30.4319 8.70895C30.393 8.72466 30.353 8.73843 30.3123 8.75019L30.2911 8.75627C30.2341 8.7714 30.176 8.78337 30.1172 8.79211H30.0944C30.0374 8.79985 29.9798 8.80392 29.9221 8.80428C29.6396 8.80277 29.366 8.71913 29.1458 8.56696L29.1245 8.55479L29.086 8.53113L29.0671 8.52031L29.0553 8.5149L29.0018 8.4838V8.48718L28.9428 8.46014C28.9114 8.44662 28.8791 8.43512 28.8461 8.42363C28.8131 8.41213 28.7942 8.40537 28.7674 8.39794C28.7302 8.38808 28.6924 8.37995 28.6542 8.3736C28.6306 8.36805 28.6067 8.36354 28.5826 8.36007C28.5189 8.35113 28.4544 8.3466 28.3899 8.34655H28.1767C28.1158 8.34674 28.0551 8.35104 27.995 8.3594C27.973 8.3594 27.9525 8.36616 27.9313 8.36954C27.892 8.3763 27.8526 8.38441 27.8157 8.39388C27.7936 8.39996 27.7716 8.40537 27.7504 8.41213C27.7158 8.42295 27.6827 8.4358 27.6497 8.44932V8.44459L27.5907 8.47231H27.5868L27.5694 8.48042C27.5185 8.5049 27.4696 8.53247 27.4231 8.56291C27.2027 8.71512 26.9288 8.79876 26.646 8.80022C26.5843 8.79958 26.5228 8.79483 26.4619 8.78602L26.4179 8.78061C26.3632 8.77101 26.3094 8.75836 26.2566 8.74275C25.9576 8.65009 25.7035 8.47362 25.5353 8.24176C25.5172 8.21742 25.4991 8.19308 25.4826 8.16806C25.4661 8.14304 25.4574 8.12749 25.4456 8.10721C25.4236 8.07003 25.404 8.03284 25.3859 7.99362C25.3772 7.97537 25.3701 7.95644 25.3623 7.93751C25.3481 7.90235 25.3347 7.8699 25.3237 7.83136C25.3174 7.81243 25.3119 7.79282 25.3064 7.77321C25.2965 7.73355 25.2878 7.69298 25.2805 7.65151C25.2805 7.64137 25.2765 7.63191 25.275 7.62177L25.2702 7.58999H24.8455V7.27898H25.2514L25.2553 7.24653C25.255 7.24405 25.255 7.24156 25.2553 7.23909C25.2624 7.18771 25.2734 7.13632 25.286 7.08629L25.2978 7.04302C25.3119 6.99637 25.3269 6.95039 25.3457 6.9078C25.3457 6.90239 25.3497 6.8963 25.352 6.89022C25.3735 6.84138 25.3979 6.79354 25.4252 6.74688C25.4323 6.73404 25.4401 6.72187 25.448 6.7097C25.4719 6.66959 25.4982 6.63055 25.5267 6.59273C25.6735 6.39738 25.8819 6.24192 26.1276 6.14447L26.141 6.13974C26.1701 6.12892 26.2 6.11946 26.2291 6.11067C26.2846 6.09429 26.3414 6.08119 26.399 6.07145L26.4391 6.06604C26.5007 6.05726 26.5631 6.05252 26.6255 6.05185C26.9073 6.05327 27.1803 6.13641 27.4003 6.28781C27.4474 6.31871 27.4971 6.34651 27.549 6.37097L27.5655 6.37908H27.571L27.6332 6.40815V6.40342C27.667 6.41694 27.7008 6.43047 27.7354 6.44128L27.7866 6.4548C27.83 6.46633 27.8741 6.47581 27.9187 6.4832C27.936 6.4832 27.9525 6.48929 27.9698 6.49132C28.031 6.49937 28.0928 6.50366 28.1547 6.50416H28.3851C28.624 6.50523 28.858 6.44573 29.0577 6.33311L29.0766 6.32229V3.37108L30.2604 3.37379ZM29.0018 3.37379V6.28984C28.8167 6.38798 28.6027 6.43843 28.3851 6.4352H28.1618C28.1043 6.4349 28.047 6.43083 27.9903 6.42303L27.9462 6.41627C27.9018 6.40935 27.8579 6.40009 27.8149 6.38855L27.7787 6.37908C27.7313 6.36423 27.6851 6.34684 27.6402 6.32702V3.37108L29.0018 3.37379ZM27.5647 3.37379V6.28645C27.5318 6.27031 27.5 6.25247 27.4696 6.23304C27.2344 6.07181 26.9429 5.98344 26.6421 5.98221C26.5849 5.98271 26.5279 5.98632 26.4714 5.99302L26.421 5.99978C26.3746 6.00695 26.3287 6.0162 26.2834 6.02751L26.2551 6.03291V3.37108L27.5647 3.37379ZM26.1685 6.05928L26.1394 6.06942L26.1213 6.07619L26.1009 6.08362C26.0781 6.09241 26.056 6.10255 26.0301 6.11405L26.0144 6.12081L25.9884 6.13298C25.9514 6.15123 25.9152 6.17016 25.8806 6.19112L25.8602 6.20465C25.8319 6.22222 25.8035 6.24048 25.776 6.26009L25.7508 6.27969C25.7257 6.29862 25.7013 6.31823 25.6777 6.33852L25.6549 6.35947C25.6352 6.37705 25.6163 6.39531 25.5975 6.41424L25.5927 6.4183L25.5849 6.42573L25.5668 6.44466C25.5518 6.46089 25.5361 6.47982 25.5204 6.49808L25.5046 6.51566L25.4944 6.52782L25.4873 6.53661C25.481 6.54405 25.4763 6.55352 25.47 6.56095C25.4441 6.59476 25.4205 6.62857 25.3977 6.66575L25.3733 6.70361C25.3465 6.74959 25.3214 6.79759 25.2993 6.84627C25.2946 6.85641 25.2915 6.86723 25.2868 6.87737C25.2694 6.91862 25.2545 6.96121 25.2403 7.00448C25.2364 7.01868 25.2317 7.03288 25.2278 7.04775C25.2124 7.10125 25.2003 7.15542 25.1916 7.21002H24.8455V4.47449C24.8455 3.86599 25.297 3.37176 25.8523 3.37176H26.1575L26.1685 6.05928Z" fill="#856628"/>
</svg>
