<svg width="42" height="36" viewBox="0 0 42 36" fill="none" xmlns="http://www.w3.org/2000/svg">
<path d="M20.1819 6.20814C20.1819 6.83484 20.4848 7.19873 20.9996 7.18862C21.4943 7.17851 21.7871 6.82473 21.7871 6.21825C21.7871 4.74248 21.7871 3.2566 21.7871 1.78082C21.7871 1.16423 21.454 0.780126 20.9694 0.790234C20.4848 0.800342 20.1819 1.17434 20.1819 1.77071C20.1819 2.49849 20.1819 3.22627 20.1819 3.94394C20.1819 4.70204 20.1819 5.45004 20.1819 6.20814Z" fill="#EFA301"/>
<path d="M26.6432 8.87666C27.2894 8.24996 27.9254 7.61316 28.5513 6.96624C28.7129 6.80451 28.7936 6.56192 28.9653 6.26879C28.7634 6.0363 28.6119 5.75328 28.3797 5.61177C28.0667 5.41971 27.7235 5.54101 27.461 5.79371C26.8048 6.45073 26.1384 7.09765 25.5024 7.76478C25.1289 8.14888 25.139 8.62396 25.4721 8.94742C25.7952 9.27088 26.2495 9.26077 26.6432 8.87666Z" fill="#EFA301"/>
<path d="M15.235 8.76547C15.6085 9.12935 16.1032 9.12935 16.4162 8.8059C16.7393 8.48244 16.7292 8.00736 16.3556 7.62326C15.76 7.00667 15.1542 6.40018 14.5384 5.80381C14.3869 5.65219 14.1547 5.58143 13.872 5.4197C13.6398 5.62186 13.3571 5.76338 13.2158 5.99586C13.024 6.30921 13.135 6.65288 13.3874 6.91569C13.9932 7.54239 14.609 8.15898 15.235 8.76547Z" fill="#EFA301"/>
<path d="M41.6056 23.4423C41.5754 21.1074 39.8893 19.0555 37.6178 18.5197C37.012 18.3782 36.3861 18.358 35.7501 18.2872C35.7803 18.2266 35.8106 18.1761 35.8409 18.1154C36.7596 16.6194 36.8303 14.244 35.9924 12.7076C35.1544 11.1712 33.4482 10.3625 31.6612 10.6759C30.0358 10.9589 28.6426 12.374 28.3902 14.0419C28.3195 14.5271 28.3195 15.0122 28.2791 15.4974C28.2488 15.5176 28.2185 15.5379 28.1883 15.5581C28.0974 15.4368 28.0267 15.3054 27.9258 15.2043C26.1186 13.3848 24.2913 11.5755 22.4841 9.75606C22.0803 9.35174 21.6562 9.06871 21.0606 9.23044C21.0101 9.24055 20.9495 9.24055 20.8991 9.23044C20.3135 9.06871 19.8996 9.34163 19.5058 9.73584C17.6785 11.5755 15.841 13.4051 14.0036 15.2447C13.9026 15.3458 13.8017 15.4267 13.6401 15.5783C13.6401 15.2953 13.6401 15.0931 13.6401 14.8909C13.6603 13.7588 13.2767 12.7986 12.5397 11.9495C10.783 9.92789 7.35043 10.2918 6.01778 12.6166C5.27068 13.9307 5.33126 15.3458 5.57356 16.7609C5.66442 17.3068 5.9673 17.8223 6.17931 18.358C5.98749 18.358 5.78557 18.358 5.58365 18.358C3.31209 18.3984 1.37368 19.8034 0.636688 21.9565C0.515537 22.3102 0.444867 22.6842 0.354004 23.038C0.354004 26.8892 0.354004 30.7302 0.354004 34.5814C0.6064 35.0363 0.990042 35.1576 1.49483 35.1576C2.08039 35.1576 2.66595 35.1576 3.25151 35.1576V24.8474C3.25151 24.534 3.50391 24.2813 3.81688 24.2813C4.12985 24.2813 4.38225 24.534 4.38225 24.8474V35.1373C7.50186 35.1373 10.6316 35.1373 13.7512 35.1373C13.8723 35.1373 13.9935 35.1475 14.1146 35.1272C14.5286 35.0767 14.8415 34.8139 14.8516 34.3995C14.8718 33.8637 14.8718 33.328 14.8718 32.7923L14.892 32.7619V25.1405L14.8617 25.0798C14.8617 24.6755 15.0031 24.3521 15.2353 24.0286C16.6689 21.916 18.1025 19.8034 19.5058 17.6707C20.0005 16.9227 20.4246 16.1241 20.8789 15.3458C20.9192 15.2852 20.9697 15.2346 21.0202 15.1639C21.2524 15.5985 21.4341 16.023 21.6865 16.397C23.423 19.015 25.1797 21.6229 26.9162 24.251C27.0474 24.443 27.1282 24.716 27.1282 24.9484C27.1383 28.0011 27.1383 31.0537 27.1383 34.1063C27.1383 34.7836 27.4311 35.1171 28.057 35.1171C31.3382 35.1171 34.6193 35.1171 37.9106 35.1171V24.8474C37.9106 24.534 38.163 24.2813 38.4759 24.2813C38.7889 24.2813 39.0413 24.534 39.0413 24.8474V35.1373C39.5966 35.1373 40.1619 35.1373 40.7172 35.1373C41.323 35.1373 41.646 34.824 41.646 34.2175C41.6258 30.619 41.646 27.0307 41.6056 23.4423Z" fill="#FF0000"/>
<path d="M9.68897 27.0478C9.5125 27.0848 9.33367 27.1184 9.1525 27.1484C8.97132 27.1762 8.78897 27.19 8.60544 27.19C8.22191 27.19 7.87132 27.1438 7.55367 27.0513C7.23838 26.9565 6.96661 26.8132 6.73838 26.6213C6.5125 26.4293 6.33603 26.1889 6.20897 25.8999C6.08191 25.6085 6.01838 25.2663 6.01838 24.8733C6.01838 24.4756 6.0772 24.1218 6.19485 23.812C6.31485 23.5022 6.48544 23.2421 6.70661 23.0317C6.93014 22.8213 7.20191 22.6617 7.52191 22.553C7.84191 22.4444 8.20309 22.39 8.60544 22.39C8.76309 22.39 8.9372 22.4051 9.12779 22.4351C9.31838 22.4652 9.50191 22.5126 9.67838 22.5773L9.61132 23.3681C9.42779 23.2687 9.25367 23.2028 9.08897 23.1704C8.92426 23.138 8.75603 23.1218 8.58426 23.1218C8.33956 23.1218 8.11956 23.1646 7.92426 23.2502C7.72897 23.3357 7.56191 23.4536 7.42309 23.6039C7.28661 23.7542 7.18073 23.9322 7.10544 24.138C7.0325 24.3438 6.99603 24.5669 6.99603 24.8074C6.99603 25.0455 7.0325 25.2652 7.10544 25.4663C7.18073 25.6652 7.28661 25.8398 7.42309 25.99C7.56191 26.1403 7.73014 26.2571 7.92779 26.3403C8.12779 26.4236 8.35367 26.4652 8.60544 26.4652C8.6972 26.4652 8.7925 26.4606 8.89132 26.4513C8.9925 26.4398 9.08897 26.4259 9.18073 26.4097C9.27485 26.3912 9.36191 26.3704 9.44191 26.3473C9.52191 26.3218 9.59132 26.2952 9.65014 26.2675L9.68897 27.0478Z" fill="white"/>
<path d="M13.6984 23.8675C13.6984 24.138 13.6513 24.3669 13.5572 24.5542C13.4631 24.7415 13.3349 24.8941 13.1725 25.012C13.0101 25.1299 12.8184 25.2155 12.5972 25.2687C12.376 25.3218 12.1384 25.3484 11.8843 25.3484H11.4819V27.1137H10.536V22.4663H11.7325C11.989 22.4663 12.236 22.4883 12.4737 22.5322C12.7113 22.5762 12.9207 22.6513 13.1019 22.7577C13.2831 22.8617 13.4278 23.0039 13.536 23.1843C13.6443 23.3646 13.6984 23.5924 13.6984 23.8675ZM12.7172 23.9265C12.7172 23.7924 12.6937 23.6791 12.6466 23.5866C12.5996 23.4918 12.5337 23.4166 12.449 23.3611C12.3666 23.3033 12.2701 23.2617 12.1596 23.2363C12.0513 23.2108 11.9349 23.1981 11.8101 23.1981H11.4819V24.6201H11.8101C11.9278 24.6201 12.0407 24.6085 12.149 24.5854C12.2596 24.5623 12.356 24.5253 12.4384 24.4744C12.5231 24.4213 12.5901 24.3507 12.6396 24.2629C12.6913 24.1727 12.7172 24.0606 12.7172 23.9265Z" fill="white"/>
<path d="M37.6292 18.5421C37.0237 18.4002 36.3981 18.3799 35.7624 18.309C35.7927 18.2481 35.823 18.1974 35.8532 18.1366C36.7715 16.6361 36.8421 14.2535 36.0046 12.7124C35.1671 11.1713 33.4618 10.3602 31.6758 10.6745C30.0512 10.9584 28.6587 12.3778 28.4064 14.0507C28.3358 14.5374 28.3358 15.024 28.2954 15.5107C28.2652 15.5309 28.2349 15.5512 28.2046 15.5715C28.1138 15.4498 28.0432 15.318 27.9423 15.2166C26.1361 13.3917 24.3097 11.5768 22.5035 9.75187C22.0998 9.34633 21.676 9.06244 21.0807 9.22466C21.0605 9.2348 21.0303 9.2348 21 9.2348V15.2166C21.0101 15.2065 21.0101 15.2065 21.0202 15.1964C21.2522 15.6323 21.4339 16.0582 21.6861 16.4333C23.4217 19.0592 25.1775 21.675 26.913 24.3111C27.0442 24.5037 27.1249 24.7775 27.1249 25.0107C27.135 28.0725 27.135 31.1344 27.135 34.1963C27.135 34.8756 27.4277 35.2102 28.0533 35.2102C31.3327 35.2102 34.6121 35.2102 37.9016 35.2102V24.889C37.9016 24.5747 38.1539 24.3212 38.4667 24.3212C38.7795 24.3212 39.0318 24.5747 39.0318 24.889V35.2102C39.5867 35.2102 40.1518 35.2102 40.7068 35.2102C41.3122 35.2102 41.6351 34.8959 41.6351 34.2876C41.6351 30.6883 41.6654 27.079 41.625 23.4797C41.5948 21.1377 39.8996 19.0795 37.6292 18.5421Z" fill="#01A451"/>
</svg>
