<svg width="35%" height="65%" viewBox="0 0 24 24" fill="none" xmlns="http://www.w3.org/2000/svg">
<path fill-rule="evenodd" clip-rule="evenodd" d="M8.99945 2.75C8.6651 2.75 8.35287 2.9171 8.1674 3.1953L6.96427 5H4.5C3.83696 5 3.20107 5.26339 2.73223 5.73223C2.26339 6.20107 2 6.83696 2 7.5V18C2 18.663 2.26339 19.2989 2.73223 19.7678C3.20107 20.2366 3.83696 20.5 4.5 20.5H19.5C20.163 20.5 20.7989 20.2366 21.2678 19.7678C21.7366 19.2989 22 18.663 22 18V7.5C22 6.83696 21.7366 6.20107 21.2678 5.73223C20.7989 5.26339 20.163 5 19.5 5H17.0346L15.8315 3.1953C15.646 2.9171 15.3338 2.75 14.9995 2.75H8.99945ZM8.3315 6.5547L9.53463 4.75H14.4643L15.6674 6.5547C15.8529 6.8329 16.1651 7 16.4995 7H19.5C19.6326 7 19.7598 7.05268 19.8536 7.14645C19.9473 7.24022 20 7.36739 20 7.5V18C20 18.1326 19.9473 18.2598 19.8536 18.3536C19.7598 18.4473 19.6326 18.5 19.5 18.5H4.5C4.36739 18.5 4.24022 18.4473 4.14645 18.3536C4.05268 18.2598 4 18.1326 4 18V7.5C4 7.36739 4.05268 7.24022 4.14645 7.14645C4.24022 7.05268 4.36739 7 4.5 7H7.49945C7.8338 7 8.14604 6.8329 8.3315 6.5547ZM9.625 12.375C9.625 11.0633 10.6883 10 12 10C13.3117 10 14.375 11.0633 14.375 12.375C14.375 13.6867 13.3117 14.75 12 14.75C10.6883 14.75 9.625 13.6867 9.625 12.375ZM12 8C9.58375 8 7.625 9.95875 7.625 12.375C7.625 14.7912 9.58375 16.75 12 16.75C14.4162 16.75 16.375 14.7912 16.375 12.375C16.375 9.95875 14.4162 8 12 8Z" fill="white"/>
</svg>
