<svg width="35%" height="65%" viewBox="0 0 21 22" fill="none" xmlns="http://www.w3.org/2000/svg">
<path d="M19.3809 4.51791C19.289 4.51791 19.1971 4.51791 19.1512 4.51791C18.5541 4.51791 17.9111 4.51791 17.314 4.51791C16.9006 4.51791 16.625 4.24831 16.625 3.84392C16.625 3.43953 16.9006 3.125 17.314 3.125C18.2785 3.125 19.1971 3.125 20.1617 3.125C20.4832 3.125 20.7588 3.43953 20.7588 3.84392C20.7588 4.74257 20.7588 5.64122 20.7588 6.53986C20.7588 6.94426 20.4373 7.25878 20.0698 7.25878C19.6564 7.25878 19.3809 6.94426 19.3809 6.53986C19.3809 5.86588 19.3809 5.19189 19.3809 4.51791Z" fill="white"/>
<path d="M19.4727 18.3121C19.4727 17.5932 19.4727 16.9192 19.4727 16.2452C19.4727 15.8858 19.7024 15.6162 20.0239 15.5712C20.4373 15.4814 20.8506 15.7959 20.8506 16.2003C20.8506 17.1439 20.8506 18.0874 20.8506 19.031C20.8506 19.3905 20.5291 19.6601 20.1617 19.6601C19.1971 19.6601 18.2785 19.6601 17.314 19.6601C16.9006 19.6601 16.625 19.3455 16.625 18.9412C16.625 18.5368 16.9465 18.2672 17.3599 18.2672C17.957 18.2672 18.6 18.2672 19.1971 18.2672C19.289 18.3121 19.3349 18.3121 19.4727 18.3121Z" fill="white"/>
<path d="M11.0762 5.91077C11.5355 5.91077 11.9948 5.91077 12.4541 5.91077C12.4541 9.59523 12.4541 13.2348 12.4541 16.9192C11.9948 16.9192 11.5355 16.9192 11.0762 16.9192C11.0762 13.2348 11.0762 9.59523 11.0762 5.91077Z" fill="white"/>
<path d="M2.625 5.91077C3.08431 5.91077 3.54362 5.91077 4.00293 5.91077C4.00293 9.59523 4.00293 13.2348 4.00293 16.9192C3.54362 16.9192 3.08431 16.9192 2.625 16.9192C2.625 13.2348 2.625 9.59523 2.625 5.91077Z" fill="white"/>
<path d="M18.1035 16.9192C17.6442 16.9192 17.1849 16.9192 16.7256 16.9192C16.7256 13.2348 16.7256 9.59523 16.7256 5.91077C17.1849 5.91077 17.6442 5.91077 18.1035 5.91077C18.1035 9.59523 18.1035 13.2348 18.1035 16.9192Z" fill="white"/>
<path d="M8.27441 5.91077C8.73372 5.91077 9.19303 5.91077 9.65234 5.91077C9.65234 8.65165 9.65234 11.3925 9.65234 14.1334C9.19303 14.1334 8.73372 14.1334 8.27441 14.1334C8.27441 11.3925 8.27441 8.65165 8.27441 5.91077Z" fill="white"/>
<path d="M6.80469 14.1334C6.34538 14.1334 5.88607 14.1334 5.42676 14.1334C5.42676 11.3925 5.42676 8.65165 5.42676 5.91077C5.88607 5.91077 6.34538 5.91077 6.80469 5.91077C6.80469 8.65165 6.80469 11.3925 6.80469 14.1334Z" fill="white"/>
<path d="M15.2559 14.1334C14.7965 14.1334 14.3372 14.1334 13.8779 14.1334C13.8779 11.3925 13.8779 8.65165 13.8779 5.91077C14.3372 5.91077 14.7965 5.91077 15.2559 5.91077C15.2559 8.65165 15.2559 11.3925 15.2559 14.1334Z" fill="white"/>
<path d="M9.65234 15.5713C9.65234 16.0206 9.65234 16.4699 9.65234 16.9193C9.19303 16.9193 8.73372 16.9193 8.27441 16.9193C8.27441 16.4699 8.27441 16.0206 8.27441 15.5713C8.73372 15.5713 9.19303 15.5713 9.65234 15.5713Z" fill="white"/>
<path d="M6.80472 15.5264C6.80472 15.9757 6.80472 16.425 6.80472 16.8743C6.34541 16.8743 5.8861 16.8743 5.38086 16.8743C5.38086 16.7395 5.38086 16.6047 5.38086 16.425C5.38086 16.1554 5.38086 15.8858 5.38086 15.6612C5.38086 15.6162 5.42679 15.5264 5.47272 15.5264C5.97796 15.5264 6.39134 15.5264 6.80472 15.5264Z" fill="white"/>
<path d="M15.2559 16.9193C14.7965 16.9193 14.3372 16.9193 13.8779 16.9193C13.8779 16.4699 13.8779 16.0206 13.8779 15.5713C14.3372 15.5713 14.7965 15.5713 15.2559 15.5713C15.2559 15.9757 15.2559 16.425 15.2559 16.9193Z" fill="white"/>
<path d="M1.42386 4.51791C1.42386 4.60777 1.42386 4.69764 1.42386 4.74257C1.42386 5.32669 1.42386 5.95574 1.42386 6.53986C1.42386 6.94426 1.14827 7.21385 0.734895 7.21385C0.321517 7.25878 0 6.98919 0 6.5848C0 5.64122 0 4.74257 0 3.79899C0 3.39459 0.321517 3.125 0.734895 3.125C1.65351 3.125 2.57213 3.125 3.49075 3.125C3.90413 3.125 4.22565 3.43953 4.22565 3.79899C4.22565 4.20338 3.90413 4.47297 3.49075 4.47297C2.80179 4.51791 2.11282 4.51791 1.42386 4.51791Z" fill="white"/>
<path d="M1.42386 18.3122C1.42386 18.2223 1.42386 18.1324 1.42386 18.0875C1.42386 17.5034 1.42386 16.8743 1.42386 16.2902C1.42386 15.8858 1.14827 15.6162 0.734895 15.6162C0.321517 15.6162 0 15.8858 0 16.2902C0 17.2338 0 18.1324 0 19.076C0 19.4804 0.321517 19.75 0.734895 19.75C1.65351 19.75 2.57213 19.75 3.49075 19.75C3.90413 19.75 4.22565 19.4355 4.22565 19.076C4.22565 18.6716 3.90413 18.402 3.49075 18.402C2.80179 18.3122 2.15875 18.3122 1.42386 18.3122Z" fill="white"/>
</svg>
