<svg width="32" height="32" viewBox="0 0 32 32" fill="none" xmlns="http://www.w3.org/2000/svg">
<path fill-rule="evenodd" clip-rule="evenodd" d="M15.7078 9.29183C15.801 9.38473 15.8748 9.49508 15.9253 9.61657C15.9757 9.73806 16.0016 9.8683 16.0016 9.99983C16.0016 10.1314 15.9757 10.2616 15.9253 10.3831C15.8748 10.5046 15.801 10.6149 15.7078 10.7078L10.4138 15.9998L15.7078 21.2918C15.8008 21.3848 15.8746 21.4952 15.9249 21.6167C15.9752 21.7381 16.0011 21.8683 16.0011 21.9998C16.0011 22.1313 15.9752 22.2615 15.9249 22.383C15.8746 22.5045 15.8008 22.6149 15.7078 22.7078C15.6149 22.8008 15.5045 22.8746 15.383 22.9249C15.2615 22.9752 15.1313 23.0011 14.9998 23.0011C14.8683 23.0011 14.7381 22.9752 14.6167 22.9249C14.4952 22.8746 14.3848 22.8008 14.2918 22.7078L8.29183 16.7078C8.19871 16.6149 8.12482 16.5046 8.07441 16.3831C8.024 16.2616 7.99805 16.1314 7.99805 15.9998C7.99805 15.8683 8.024 15.7381 8.07441 15.6166C8.12482 15.4951 8.19871 15.3847 8.29183 15.2918L14.2918 9.29183C14.3847 9.19871 14.4951 9.12482 14.6166 9.07441C14.7381 9.024 14.8683 8.99805 14.9998 8.99805C15.1314 8.99805 15.2616 9.024 15.3831 9.07441C15.5046 9.12482 15.6149 9.19871 15.7078 9.29183Z" fill="white"/>
<path fill-rule="evenodd" clip-rule="evenodd" d="M9 16C9 15.7348 9.10536 15.4804 9.29289 15.2929C9.48043 15.1054 9.73478 15 10 15H23C23.2652 15 23.5196 15.1054 23.7071 15.2929C23.8946 15.4804 24 15.7348 24 16C24 16.2652 23.8946 16.5196 23.7071 16.7071C23.5196 16.8946 23.2652 17 23 17H10C9.73478 17 9.48043 16.8946 9.29289 16.7071C9.10536 16.5196 9 16.2652 9 16Z" fill="white"/>
</svg>
